<?xml version="1.0" encoding="UTF-8"?>
<svg xmlns="http://www.w3.org/2000/svg"
     xmlns:xlink="http://www.w3.org/1999/xlink"
     version="1.2"
     width="141.42mm" height="100mm" viewBox="0 0 141.42 100"
     stroke="none"
     fill="#000000"
     stroke-width="0.3"
     font-size="3.88"
>
<defs>
  <marker id="arrow" markerWidth="15" markerHeight="7" refX="5" refY="3.5" orient="auto" markerUnits="strokeWidth">
    <path d="M0,0 L15,3.5 L0,7 z" stroke="context-stroke" fill="context-stroke"/>
  </marker>
</defs>
<g stroke="#808080" stroke-width="0.71" id="img-fce97930-1">
  <g transform="translate(70.71,50)">
    <path d="M-50,-50 L50,-50 50,50 -50,50  z" class="primitive"/>
  </g>
</g>
<g stroke-width="0.35" id="img-fce97930-2">
  <g stroke="#808080" fill="#FFFFFF" id="img-fce97930-3">
    <g transform="translate(115.71,5)">
      <path d="M-5,-5 L5,-5 5,5 -5,5  z" class="primitive"/>
    </g>
  </g>
  <g stroke="#808080" fill="#FFFFFF" id="img-fce97930-4">
    <g transform="translate(115.71,15)">
      <path d="M-5,-5 L5,-5 5,5 -5,5  z" class="primitive"/>
    </g>
  </g>
  <g stroke="#808080" fill="#FFFFFF" id="img-fce97930-5">
    <g transform="translate(115.71,25)">
      <path d="M-5,-5 L5,-5 5,5 -5,5  z" class="primitive"/>
    </g>
  </g>
  <g stroke="#808080" fill="#FFFFFF" id="img-fce97930-6">
    <g transform="translate(115.71,35)">
      <path d="M-5,-5 L5,-5 5,5 -5,5  z" class="primitive"/>
    </g>
  </g>
  <g stroke="#808080" fill="#42A151" id="img-fce97930-7">
    <g transform="translate(115.71,45)">
      <path d="M-5,-5 L5,-5 5,5 -5,5  z" class="primitive"/>
    </g>
  </g>
  <g stroke="#808080" fill="#FFFFFF" id="img-fce97930-8">
    <g transform="translate(115.71,55)">
      <path d="M-5,-5 L5,-5 5,5 -5,5  z" class="primitive"/>
    </g>
  </g>
  <g stroke="#808080" fill="#FFFFFF" id="img-fce97930-9">
    <g transform="translate(115.71,65)">
      <path d="M-5,-5 L5,-5 5,5 -5,5  z" class="primitive"/>
    </g>
  </g>
  <g stroke="#808080" fill="#FFFFFF" id="img-fce97930-10">
    <g transform="translate(115.71,75)">
      <path d="M-5,-5 L5,-5 5,5 -5,5  z" class="primitive"/>
    </g>
  </g>
  <g stroke="#808080" fill="#FFFFFF" id="img-fce97930-11">
    <g transform="translate(115.71,85)">
      <path d="M-5,-5 L5,-5 5,5 -5,5  z" class="primitive"/>
    </g>
  </g>
  <g stroke="#808080" fill="#FFFFFF" id="img-fce97930-12">
    <g transform="translate(115.71,95)">
      <path d="M-5,-5 L5,-5 5,5 -5,5  z" class="primitive"/>
    </g>
  </g>
  <g stroke="#808080" fill="#FFFFFF" id="img-fce97930-13">
    <g transform="translate(105.71,5)">
      <path d="M-5,-5 L5,-5 5,5 -5,5  z" class="primitive"/>
    </g>
  </g>
  <g stroke="#808080" fill="#FFFFFF" id="img-fce97930-14">
    <g transform="translate(105.71,15)">
      <path d="M-5,-5 L5,-5 5,5 -5,5  z" class="primitive"/>
    </g>
  </g>
  <g stroke="#808080" fill="#FFFFFF" id="img-fce97930-15">
    <g transform="translate(105.71,25)">
      <path d="M-5,-5 L5,-5 5,5 -5,5  z" class="primitive"/>
    </g>
  </g>
  <g stroke="#808080" fill="#FFFFFF" id="img-fce97930-16">
    <g transform="translate(105.71,35)">
      <path d="M-5,-5 L5,-5 5,5 -5,5  z" class="primitive"/>
    </g>
  </g>
  <g stroke="#808080" fill="#FFFFFF" id="img-fce97930-17">
    <g transform="translate(105.71,45)">
      <path d="M-5,-5 L5,-5 5,5 -5,5  z" class="primitive"/>
    </g>
  </g>
  <g stroke="#808080" fill="#FFFFFF" id="img-fce97930-18">
    <g transform="translate(105.71,55)">
      <path d="M-5,-5 L5,-5 5,5 -5,5  z" class="primitive"/>
    </g>
  </g>
  <g stroke="#808080" fill="#FFFFFF" id="img-fce97930-19">
    <g transform="translate(105.71,65)">
      <path d="M-5,-5 L5,-5 5,5 -5,5  z" class="primitive"/>
    </g>
  </g>
  <g stroke="#808080" fill="#FFFFFF" id="img-fce97930-20">
    <g transform="translate(105.71,75)">
      <path d="M-5,-5 L5,-5 5,5 -5,5  z" class="primitive"/>
    </g>
  </g>
  <g stroke="#808080" fill="#FFFFFF" id="img-fce97930-21">
    <g transform="translate(105.71,85)">
      <path d="M-5,-5 L5,-5 5,5 -5,5  z" class="primitive"/>
    </g>
  </g>
  <g stroke="#808080" fill="#FFFFFF" id="img-fce97930-22">
    <g transform="translate(105.71,95)">
      <path d="M-5,-5 L5,-5 5,5 -5,5  z" class="primitive"/>
    </g>
  </g>
  <g stroke="#808080" fill="#FFFFFF" id="img-fce97930-23">
    <g transform="translate(95.71,5)">
      <path d="M-5,-5 L5,-5 5,5 -5,5  z" class="primitive"/>
    </g>
  </g>
  <g stroke="#808080" fill="#FFFFFF" id="img-fce97930-24">
    <g transform="translate(95.71,15)">
      <path d="M-5,-5 L5,-5 5,5 -5,5  z" class="primitive"/>
    </g>
  </g>
  <g stroke="#808080" fill="#FFFFFF" id="img-fce97930-25">
    <g transform="translate(95.71,25)">
      <path d="M-5,-5 L5,-5 5,5 -5,5  z" class="primitive"/>
    </g>
  </g>
  <g stroke="#808080" fill="#FFFFFF" id="img-fce97930-26">
    <g transform="translate(95.71,35)">
      <path d="M-5,-5 L5,-5 5,5 -5,5  z" class="primitive"/>
    </g>
  </g>
  <g stroke="#808080" fill="#000000" id="img-fce97930-27">
    <g transform="translate(95.71,45)">
      <path d="M-5,-5 L5,-5 5,5 -5,5  z" class="primitive"/>
    </g>
  </g>
  <g stroke="#808080" fill="#000000" id="img-fce97930-28">
    <g transform="translate(95.71,55)">
      <path d="M-5,-5 L5,-5 5,5 -5,5  z" class="primitive"/>
    </g>
  </g>
  <g stroke="#808080" fill="#FFFFFF" id="img-fce97930-29">
    <g transform="translate(95.71,65)">
      <path d="M-5,-5 L5,-5 5,5 -5,5  z" class="primitive"/>
    </g>
  </g>
  <g stroke="#808080" fill="#FFFFFF" id="img-fce97930-30">
    <g transform="translate(95.71,75)">
      <path d="M-5,-5 L5,-5 5,5 -5,5  z" class="primitive"/>
    </g>
  </g>
  <g stroke="#808080" fill="#FFFFFF" id="img-fce97930-31">
    <g transform="translate(95.71,85)">
      <path d="M-5,-5 L5,-5 5,5 -5,5  z" class="primitive"/>
    </g>
  </g>
  <g stroke="#808080" fill="#FFFFFF" id="img-fce97930-32">
    <g transform="translate(95.71,95)">
      <path d="M-5,-5 L5,-5 5,5 -5,5  z" class="primitive"/>
    </g>
  </g>
  <g stroke="#808080" fill="#FFFFFF" id="img-fce97930-33">
    <g transform="translate(85.71,5)">
      <path d="M-5,-5 L5,-5 5,5 -5,5  z" class="primitive"/>
    </g>
  </g>
  <g stroke="#808080" fill="#FFFFFF" id="img-fce97930-34">
    <g transform="translate(85.71,15)">
      <path d="M-5,-5 L5,-5 5,5 -5,5  z" class="primitive"/>
    </g>
  </g>
  <g stroke="#808080" fill="#FFFFFF" id="img-fce97930-35">
    <g transform="translate(85.71,25)">
      <path d="M-5,-5 L5,-5 5,5 -5,5  z" class="primitive"/>
    </g>
  </g>
  <g stroke="#808080" fill="#FFFFFF" id="img-fce97930-36">
    <g transform="translate(85.71,35)">
      <path d="M-5,-5 L5,-5 5,5 -5,5  z" class="primitive"/>
    </g>
  </g>
  <g stroke="#808080" fill="#FFFFFF" id="img-fce97930-37">
    <g transform="translate(85.71,45)">
      <path d="M-5,-5 L5,-5 5,5 -5,5  z" class="primitive"/>
    </g>
  </g>
  <g stroke="#808080" fill="#FFFFFF" id="img-fce97930-38">
    <g transform="translate(85.71,55)">
      <path d="M-5,-5 L5,-5 5,5 -5,5  z" class="primitive"/>
    </g>
  </g>
  <g stroke="#808080" fill="#FFFFFF" id="img-fce97930-39">
    <g transform="translate(85.71,65)">
      <path d="M-5,-5 L5,-5 5,5 -5,5  z" class="primitive"/>
    </g>
  </g>
  <g stroke="#808080" fill="#FFFFFF" id="img-fce97930-40">
    <g transform="translate(85.71,75)">
      <path d="M-5,-5 L5,-5 5,5 -5,5  z" class="primitive"/>
    </g>
  </g>
  <g stroke="#808080" fill="#FFFFFF" id="img-fce97930-41">
    <g transform="translate(85.71,85)">
      <path d="M-5,-5 L5,-5 5,5 -5,5  z" class="primitive"/>
    </g>
  </g>
  <g stroke="#808080" fill="#000000" id="img-fce97930-42">
    <g transform="translate(85.71,95)">
      <path d="M-5,-5 L5,-5 5,5 -5,5  z" class="primitive"/>
    </g>
  </g>
  <g stroke="#808080" fill="#FFFFFF" id="img-fce97930-43">
    <g transform="translate(75.71,5)">
      <path d="M-5,-5 L5,-5 5,5 -5,5  z" class="primitive"/>
    </g>
  </g>
  <g stroke="#808080" fill="#FFFFFF" id="img-fce97930-44">
    <g transform="translate(75.71,15)">
      <path d="M-5,-5 L5,-5 5,5 -5,5  z" class="primitive"/>
    </g>
  </g>
  <g stroke="#808080" fill="#FFFFFF" id="img-fce97930-45">
    <g transform="translate(75.71,25)">
      <path d="M-5,-5 L5,-5 5,5 -5,5  z" class="primitive"/>
    </g>
  </g>
  <g stroke="#808080" fill="#FFFFFF" id="img-fce97930-46">
    <g transform="translate(75.71,35)">
      <path d="M-5,-5 L5,-5 5,5 -5,5  z" class="primitive"/>
    </g>
  </g>
  <g stroke="#808080" fill="#FFFFFF" id="img-fce97930-47">
    <g transform="translate(75.71,45)">
      <path d="M-5,-5 L5,-5 5,5 -5,5  z" class="primitive"/>
    </g>
  </g>
  <g stroke="#808080" fill="#FFFFFF" id="img-fce97930-48">
    <g transform="translate(75.71,55)">
      <path d="M-5,-5 L5,-5 5,5 -5,5  z" class="primitive"/>
    </g>
  </g>
  <g stroke="#808080" fill="#FFFFFF" id="img-fce97930-49">
    <g transform="translate(75.71,65)">
      <path d="M-5,-5 L5,-5 5,5 -5,5  z" class="primitive"/>
    </g>
  </g>
  <g stroke="#808080" fill="#FFFFFF" id="img-fce97930-50">
    <g transform="translate(75.71,75)">
      <path d="M-5,-5 L5,-5 5,5 -5,5  z" class="primitive"/>
    </g>
  </g>
  <g stroke="#808080" fill="#000000" id="img-fce97930-51">
    <g transform="translate(75.71,85)">
      <path d="M-5,-5 L5,-5 5,5 -5,5  z" class="primitive"/>
    </g>
  </g>
  <g stroke="#808080" fill="#FFFFFF" id="img-fce97930-52">
    <g transform="translate(75.71,95)">
      <path d="M-5,-5 L5,-5 5,5 -5,5  z" class="primitive"/>
    </g>
  </g>
  <g stroke="#808080" fill="#FFFFFF" id="img-fce97930-53">
    <g transform="translate(65.71,5)">
      <path d="M-5,-5 L5,-5 5,5 -5,5  z" class="primitive"/>
    </g>
  </g>
  <g stroke="#808080" fill="#FFFFFF" id="img-fce97930-54">
    <g transform="translate(65.71,15)">
      <path d="M-5,-5 L5,-5 5,5 -5,5  z" class="primitive"/>
    </g>
  </g>
  <g stroke="#808080" fill="#FFFFFF" id="img-fce97930-55">
    <g transform="translate(65.71,25)">
      <path d="M-5,-5 L5,-5 5,5 -5,5  z" class="primitive"/>
    </g>
  </g>
  <g stroke="#808080" fill="#FFFFFF" id="img-fce97930-56">
    <g transform="translate(65.71,35)">
      <path d="M-5,-5 L5,-5 5,5 -5,5  z" class="primitive"/>
    </g>
  </g>
  <g stroke="#808080" fill="#FFFFFF" id="img-fce97930-57">
    <g transform="translate(65.71,45)">
      <path d="M-5,-5 L5,-5 5,5 -5,5  z" class="primitive"/>
    </g>
  </g>
  <g stroke="#808080" fill="#FFFFFF" id="img-fce97930-58">
    <g transform="translate(65.71,55)">
      <path d="M-5,-5 L5,-5 5,5 -5,5  z" class="primitive"/>
    </g>
  </g>
  <g stroke="#808080" fill="#000000" id="img-fce97930-59">
    <g transform="translate(65.71,65)">
      <path d="M-5,-5 L5,-5 5,5 -5,5  z" class="primitive"/>
    </g>
  </g>
  <g stroke="#808080" fill="#FFFFFF" id="img-fce97930-60">
    <g transform="translate(65.71,75)">
      <path d="M-5,-5 L5,-5 5,5 -5,5  z" class="primitive"/>
    </g>
  </g>
  <g stroke="#808080" fill="#FFFFFF" id="img-fce97930-61">
    <g transform="translate(65.71,85)">
      <path d="M-5,-5 L5,-5 5,5 -5,5  z" class="primitive"/>
    </g>
  </g>
  <g stroke="#808080" fill="#FFFFFF" id="img-fce97930-62">
    <g transform="translate(65.71,95)">
      <path d="M-5,-5 L5,-5 5,5 -5,5  z" class="primitive"/>
    </g>
  </g>
  <g stroke="#808080" fill="#FFFFFF" id="img-fce97930-63">
    <g transform="translate(55.71,5)">
      <path d="M-5,-5 L5,-5 5,5 -5,5  z" class="primitive"/>
    </g>
  </g>
  <g stroke="#808080" fill="#C1E0C6" id="img-fce97930-64">
    <g transform="translate(55.71,15)">
      <path d="M-5,-5 L5,-5 5,5 -5,5  z" class="primitive"/>
    </g>
  </g>
  <g stroke="#808080" fill="#FFFFFF" id="img-fce97930-65">
    <g transform="translate(55.71,25)">
      <path d="M-5,-5 L5,-5 5,5 -5,5  z" class="primitive"/>
    </g>
  </g>
  <g stroke="#808080" fill="#FFFFFF" id="img-fce97930-66">
    <g transform="translate(55.71,35)">
      <path d="M-5,-5 L5,-5 5,5 -5,5  z" class="primitive"/>
    </g>
  </g>
  <g stroke="#808080" fill="#FFFFFF" id="img-fce97930-67">
    <g transform="translate(55.71,45)">
      <path d="M-5,-5 L5,-5 5,5 -5,5  z" class="primitive"/>
    </g>
  </g>
  <g stroke="#808080" fill="#FFFFFF" id="img-fce97930-68">
    <g transform="translate(55.71,55)">
      <path d="M-5,-5 L5,-5 5,5 -5,5  z" class="primitive"/>
    </g>
  </g>
  <g stroke="#808080" fill="#FFFFFF" id="img-fce97930-69">
    <g transform="translate(55.71,65)">
      <path d="M-5,-5 L5,-5 5,5 -5,5  z" class="primitive"/>
    </g>
  </g>
  <g stroke="#808080" fill="#FFFFFF" id="img-fce97930-70">
    <g transform="translate(55.71,75)">
      <path d="M-5,-5 L5,-5 5,5 -5,5  z" class="primitive"/>
    </g>
  </g>
  <g stroke="#808080" fill="#FFFFFF" id="img-fce97930-71">
    <g transform="translate(55.71,85)">
      <path d="M-5,-5 L5,-5 5,5 -5,5  z" class="primitive"/>
    </g>
  </g>
  <g stroke="#808080" fill="#FFFFFF" id="img-fce97930-72">
    <g transform="translate(55.71,95)">
      <path d="M-5,-5 L5,-5 5,5 -5,5  z" class="primitive"/>
    </g>
  </g>
  <g stroke="#808080" fill="#FFFFFF" id="img-fce97930-73">
    <g transform="translate(45.71,5)">
      <path d="M-5,-5 L5,-5 5,5 -5,5  z" class="primitive"/>
    </g>
  </g>
  <g stroke="#808080" fill="#FFFFFF" id="img-fce97930-74">
    <g transform="translate(45.71,15)">
      <path d="M-5,-5 L5,-5 5,5 -5,5  z" class="primitive"/>
    </g>
  </g>
  <g stroke="#808080" fill="#000000" id="img-fce97930-75">
    <g transform="translate(45.71,25)">
      <path d="M-5,-5 L5,-5 5,5 -5,5  z" class="primitive"/>
    </g>
  </g>
  <g stroke="#808080" fill="#000000" id="img-fce97930-76">
    <g transform="translate(45.71,35)">
      <path d="M-5,-5 L5,-5 5,5 -5,5  z" class="primitive"/>
    </g>
  </g>
  <g stroke="#808080" fill="#FFFFFF" id="img-fce97930-77">
    <g transform="translate(45.71,45)">
      <path d="M-5,-5 L5,-5 5,5 -5,5  z" class="primitive"/>
    </g>
  </g>
  <g stroke="#808080" fill="#FFFFFF" id="img-fce97930-78">
    <g transform="translate(45.71,55)">
      <path d="M-5,-5 L5,-5 5,5 -5,5  z" class="primitive"/>
    </g>
  </g>
  <g stroke="#808080" fill="#FFFFFF" id="img-fce97930-79">
    <g transform="translate(45.71,65)">
      <path d="M-5,-5 L5,-5 5,5 -5,5  z" class="primitive"/>
    </g>
  </g>
  <g stroke="#808080" fill="#FFFFFF" id="img-fce97930-80">
    <g transform="translate(45.71,75)">
      <path d="M-5,-5 L5,-5 5,5 -5,5  z" class="primitive"/>
    </g>
  </g>
  <g stroke="#808080" fill="#FFFFFF" id="img-fce97930-81">
    <g transform="translate(45.71,85)">
      <path d="M-5,-5 L5,-5 5,5 -5,5  z" class="primitive"/>
    </g>
  </g>
  <g stroke="#808080" fill="#FFFFFF" id="img-fce97930-82">
    <g transform="translate(45.71,95)">
      <path d="M-5,-5 L5,-5 5,5 -5,5  z" class="primitive"/>
    </g>
  </g>
  <g stroke="#808080" fill="#FFFFFF" id="img-fce97930-83">
    <g transform="translate(35.71,5)">
      <path d="M-5,-5 L5,-5 5,5 -5,5  z" class="primitive"/>
    </g>
  </g>
  <g stroke="#808080" fill="#000000" id="img-fce97930-84">
    <g transform="translate(35.71,15)">
      <path d="M-5,-5 L5,-5 5,5 -5,5  z" class="primitive"/>
    </g>
  </g>
  <g stroke="#808080" fill="#FFFFFF" id="img-fce97930-85">
    <g transform="translate(35.71,25)">
      <path d="M-5,-5 L5,-5 5,5 -5,5  z" class="primitive"/>
    </g>
  </g>
  <g stroke="#808080" fill="#FFFFFF" id="img-fce97930-86">
    <g transform="translate(35.71,35)">
      <path d="M-5,-5 L5,-5 5,5 -5,5  z" class="primitive"/>
    </g>
  </g>
  <g stroke="#808080" fill="#FFFFFF" id="img-fce97930-87">
    <g transform="translate(35.71,45)">
      <path d="M-5,-5 L5,-5 5,5 -5,5  z" class="primitive"/>
    </g>
  </g>
  <g stroke="#808080" fill="#FFFFFF" id="img-fce97930-88">
    <g transform="translate(35.71,55)">
      <path d="M-5,-5 L5,-5 5,5 -5,5  z" class="primitive"/>
    </g>
  </g>
  <g stroke="#808080" fill="#FFFFFF" id="img-fce97930-89">
    <g transform="translate(35.71,65)">
      <path d="M-5,-5 L5,-5 5,5 -5,5  z" class="primitive"/>
    </g>
  </g>
  <g stroke="#808080" fill="#FFFFFF" id="img-fce97930-90">
    <g transform="translate(35.71,75)">
      <path d="M-5,-5 L5,-5 5,5 -5,5  z" class="primitive"/>
    </g>
  </g>
  <g stroke="#808080" fill="#FFFFFF" id="img-fce97930-91">
    <g transform="translate(35.71,85)">
      <path d="M-5,-5 L5,-5 5,5 -5,5  z" class="primitive"/>
    </g>
  </g>
  <g stroke="#808080" fill="#FFFFFF" id="img-fce97930-92">
    <g transform="translate(35.71,95)">
      <path d="M-5,-5 L5,-5 5,5 -5,5  z" class="primitive"/>
    </g>
  </g>
  <g stroke="#808080" fill="#FFFFFF" id="img-fce97930-93">
    <g transform="translate(25.71,5)">
      <path d="M-5,-5 L5,-5 5,5 -5,5  z" class="primitive"/>
    </g>
  </g>
  <g stroke="#808080" fill="#FFFFFF" id="img-fce97930-94">
    <g transform="translate(25.71,15)">
      <path d="M-5,-5 L5,-5 5,5 -5,5  z" class="primitive"/>
    </g>
  </g>
  <g stroke="#808080" fill="#000000" id="img-fce97930-95">
    <g transform="translate(25.71,25)">
      <path d="M-5,-5 L5,-5 5,5 -5,5  z" class="primitive"/>
    </g>
  </g>
  <g stroke="#808080" fill="#FFFFFF" id="img-fce97930-96">
    <g transform="translate(25.71,35)">
      <path d="M-5,-5 L5,-5 5,5 -5,5  z" class="primitive"/>
    </g>
  </g>
  <g stroke="#808080" fill="#FFFFFF" id="img-fce97930-97">
    <g transform="translate(25.71,45)">
      <path d="M-5,-5 L5,-5 5,5 -5,5  z" class="primitive"/>
    </g>
  </g>
  <g stroke="#808080" fill="#FFFFFF" id="img-fce97930-98">
    <g transform="translate(25.71,55)">
      <path d="M-5,-5 L5,-5 5,5 -5,5  z" class="primitive"/>
    </g>
  </g>
  <g stroke="#808080" fill="#FFFFFF" id="img-fce97930-99">
    <g transform="translate(25.71,65)">
      <path d="M-5,-5 L5,-5 5,5 -5,5  z" class="primitive"/>
    </g>
  </g>
  <g stroke="#808080" fill="#84C28E" id="img-fce97930-100">
    <g transform="translate(25.71,75)">
      <path d="M-5,-5 L5,-5 5,5 -5,5  z" class="primitive"/>
    </g>
  </g>
  <g stroke="#808080" fill="#FFFFFF" id="img-fce97930-101">
    <g transform="translate(25.71,85)">
      <path d="M-5,-5 L5,-5 5,5 -5,5  z" class="primitive"/>
    </g>
  </g>
  <g stroke="#808080" fill="#008015" id="img-fce97930-102">
    <g transform="translate(25.71,95)">
      <path d="M-5,-5 L5,-5 5,5 -5,5  z" class="primitive"/>
    </g>
  </g>
</g>
<g stroke="#000000" stroke-width="0.35" id="img-fce97930-103">
  <g transform="translate(50.71,50)">
    <path fill="none" d="M-5,5 L5,-5 " class="primitive"/>
  </g>
</g>
<g stroke="#000000" stroke-width="0.35" id="img-fce97930-104">
  <g transform="translate(45.71,50)">
    <path fill="none" d="M0,5 L0,-5 " class="primitive"/>
  </g>
</g>
<g stroke="#000000" stroke-width="0.35" id="img-fce97930-105">
  <g transform="translate(40.71,50)">
    <path fill="none" d="M5,5 L-5,-5 " class="primitive"/>
  </g>
</g>
<g stroke="#000000" stroke-width="0.35" id="img-fce97930-106">
  <g transform="translate(50.71,55)">
    <path fill="none" d="M-5,0 L5,0 " class="primitive"/>
  </g>
</g>
<g stroke="#000000" stroke-width="0.35" id="img-fce97930-107">
  <g transform="translate(45.71,55)">
    <path fill="none" d="M0,0 L0,0 " class="primitive"/>
  </g>
</g>
<g stroke="#000000" stroke-width="0.35" id="img-fce97930-108">
  <g transform="translate(40.71,55)">
    <path fill="none" d="M5,0 L-5,0 " class="primitive"/>
  </g>
</g>
<g stroke="#000000" stroke-width="0.35" id="img-fce97930-109">
  <g transform="translate(50.71,60)">
    <path fill="none" d="M-5,-5 L5,5 " class="primitive"/>
  </g>
</g>
<g stroke="#000000" stroke-width="0.35" id="img-fce97930-110">
  <g transform="translate(45.71,60)">
    <path fill="none" d="M0,-5 L0,5 " class="primitive"/>
  </g>
</g>
<g stroke="#000000" stroke-width="0.35" id="img-fce97930-111">
  <g transform="translate(40.71,60)">
    <path fill="none" d="M5,-5 L-5,5 " class="primitive"/>
  </g>
</g>
<g stroke="#000000" stroke-width="0.35" id="img-fce97930-112">
  <g transform="translate(90.71,20)">
    <path fill="none" d="M-5,5 L5,-5 " class="primitive"/>
  </g>
</g>
<g stroke="#000000" stroke-width="0.35" id="img-fce97930-113">
  <g transform="translate(85.71,20)">
    <path fill="none" d="M0,5 L0,-5 " class="primitive"/>
  </g>
</g>
<g stroke="#000000" stroke-width="0.35" id="img-fce97930-114">
  <g transform="translate(80.71,20)">
    <path fill="none" d="M5,5 L-5,-5 " class="primitive"/>
  </g>
</g>
<g stroke="#000000" stroke-width="0.35" id="img-fce97930-115">
  <g transform="translate(90.71,25)">
    <path fill="none" d="M-5,0 L5,0 " class="primitive"/>
  </g>
</g>
<g stroke="#000000" stroke-width="0.35" id="img-fce97930-116">
  <g transform="translate(85.71,25)">
    <path fill="none" d="M0,0 L0,0 " class="primitive"/>
  </g>
</g>
<g stroke="#000000" stroke-width="0.35" id="img-fce97930-117">
  <g transform="translate(80.71,25)">
    <path fill="none" d="M5,0 L-5,0 " class="primitive"/>
  </g>
</g>
<g stroke="#000000" stroke-width="0.35" id="img-fce97930-118">
  <g transform="translate(90.71,30)">
    <path fill="none" d="M-5,-5 L5,5 " class="primitive"/>
  </g>
</g>
<g stroke="#000000" stroke-width="0.35" id="img-fce97930-119">
  <g transform="translate(85.71,30)">
    <path fill="none" d="M0,-5 L0,5 " class="primitive"/>
  </g>
</g>
<g stroke="#000000" stroke-width="0.35" id="img-fce97930-120">
  <g transform="translate(80.71,30)">
    <path fill="none" d="M5,-5 L-5,5 " class="primitive"/>
  </g>
</g>
<g stroke="#000000" stroke-width="0.35" id="img-fce97930-121">
  <g transform="translate(54.77,45.94)">
    <path d="M0.94,-0.94 L-0.97,-0.02 0.02,0.97  z" class="primitive"/>
  </g>
</g>
<g stroke="#000000" stroke-width="0.35" id="img-fce97930-122">
  <g transform="translate(45.71,46.33)">
    <path d="M0,-1.33 L-0.7,0.67 0.7,0.67  z" class="primitive"/>
  </g>
</g>
<g stroke="#000000" stroke-width="0.35" id="img-fce97930-123">
  <g transform="translate(36.65,45.94)">
    <path d="M-0.94,-0.94 L-0.02,0.97 0.97,-0.02  z" class="primitive"/>
  </g>
</g>
<g stroke="#000000" stroke-width="0.35" id="img-fce97930-124">
  <g transform="translate(54.38,55)">
    <path d="M1.33,0 L-0.67,-0.7 -0.67,0.7  z" class="primitive"/>
  </g>
</g>
<g stroke="#000000" stroke-width="0.35" id="img-fce97930-125">
  <g transform="translate(NaN,NaN)">
    <path d="NaN,NaN  z" class="primitive"/>
  </g>
</g>
<g stroke="#000000" stroke-width="0.35" id="img-fce97930-126">
  <g transform="translate(37.04,55)">
    <path d="M-1.33,0 L0.67,0.7 0.67,-0.7  z" class="primitive"/>
  </g>
</g>
<g stroke="#000000" stroke-width="0.35" id="img-fce97930-127">
  <g transform="translate(54.77,64.06)">
    <path d="M0.94,0.94 L0.02,-0.97 -0.97,0.02  z" class="primitive"/>
  </g>
</g>
<g stroke="#000000" stroke-width="0.35" id="img-fce97930-128">
  <g transform="translate(45.71,63.67)">
    <path d="M0,1.33 L0.7,-0.67 -0.7,-0.67  z" class="primitive"/>
  </g>
</g>
<g stroke="#000000" stroke-width="0.35" id="img-fce97930-129">
  <g transform="translate(36.65,64.06)">
    <path d="M-0.94,0.94 L0.97,0.02 -0.02,-0.97  z" class="primitive"/>
  </g>
</g>
<g stroke="#000000" stroke-width="0.35" id="img-fce97930-130">
  <g transform="translate(94.77,15.94)">
    <path d="M0.94,-0.94 L-0.97,-0.02 0.02,0.97  z" class="primitive"/>
  </g>
</g>
<g stroke="#000000" stroke-width="0.35" id="img-fce97930-131">
  <g transform="translate(85.71,16.33)">
    <path d="M0,-1.33 L-0.7,0.67 0.7,0.67  z" class="primitive"/>
  </g>
</g>
<g stroke="#000000" stroke-width="0.35" id="img-fce97930-132">
  <g transform="translate(76.65,15.94)">
    <path d="M-0.94,-0.94 L-0.02,0.97 0.97,-0.02  z" class="primitive"/>
  </g>
</g>
<g stroke="#000000" stroke-width="0.35" id="img-fce97930-133">
  <g transform="translate(94.38,25)">
    <path d="M1.33,0 L-0.67,-0.7 -0.67,0.7  z" class="primitive"/>
  </g>
</g>
<g stroke="#000000" stroke-width="0.35" id="img-fce97930-134">
  <g transform="translate(NaN,NaN)">
    <path d="NaN,NaN  z" class="primitive"/>
  </g>
</g>
<g stroke="#000000" stroke-width="0.35" id="img-fce97930-135">
  <g transform="translate(77.04,25)">
    <path d="M-1.33,0 L0.67,0.7 0.67,-0.7  z" class="primitive"/>
  </g>
</g>
<g stroke="#000000" stroke-width="0.35" id="img-fce97930-136">
  <g transform="translate(94.77,34.06)">
    <path d="M0.94,0.94 L0.02,-0.97 -0.97,0.02  z" class="primitive"/>
  </g>
</g>
<g stroke="#000000" stroke-width="0.35" id="img-fce97930-137">
  <g transform="translate(85.71,33.67)">
    <path d="M0,1.33 L0.7,-0.67 -0.7,-0.67  z" class="primitive"/>
  </g>
</g>
<g stroke="#000000" stroke-width="0.35" id="img-fce97930-138">
  <g transform="translate(76.65,34.06)">
    <path d="M-0.94,0.94 L0.97,0.02 -0.02,-0.97  z" class="primitive"/>
  </g>
</g>
<g stroke="#000000" id="img-fce97930-139">
  <g transform="translate(115.71,46)">
    <g class="primitive">
      <text text-anchor="middle" dy="0.35em">0.75</text>
    </g>
  </g>
</g>
<g stroke="#000000" id="img-fce97930-140">
  <g transform="translate(55.71,16)">
    <g class="primitive">
      <text text-anchor="middle" dy="0.35em">0.25</text>
    </g>
  </g>
</g>
<g stroke="#000000" id="img-fce97930-141">
  <g transform="translate(25.71,76)">
    <g class="primitive">
      <text text-anchor="middle" dy="0.35em">0.5</text>
    </g>
  </g>
</g>
<g stroke="#000000" id="img-fce97930-142">
  <g transform="translate(25.71,96)">
    <g class="primitive">
      <text text-anchor="middle" dy="0.35em">1.0</text>
    </g>
  </g>
</g>
<g fill="#FFA500" id="img-fce97930-143">
  <g transform="translate(45.71,55)">
    <circle cx="0" cy="0" r="3" class="primitive"/>
  </g>
</g>
<g fill="#0000FF" id="img-fce97930-144">
  <g transform="translate(85.71,25)">
    <circle cx="0" cy="0" r="3" class="primitive"/>
  </g>
</g>
</svg>
