<?xml version="1.0" encoding="UTF-8"?>
<svg xmlns="http://www.w3.org/2000/svg"
     xmlns:xlink="http://www.w3.org/1999/xlink"
     version="1.2"
     width="141.42mm" height="100mm" viewBox="0 0 141.42 100"
     stroke="none"
     fill="#000000"
     stroke-width="0.3"
     font-size="3.88"
>
<defs>
  <marker id="arrow" markerWidth="15" markerHeight="7" refX="5" refY="3.5" orient="auto" markerUnits="strokeWidth">
    <path d="M0,0 L15,3.5 L0,7 z" stroke="context-stroke" fill="context-stroke"/>
  </marker>
</defs>
<g stroke="#808080" stroke-width="0.71" id="img-e4d03abe-1">
  <g transform="translate(70.71,50)">
    <path d="M-50,-50 L50,-50 50,50 -50,50  z" class="primitive"/>
  </g>
</g>
<g stroke-width="0.35" id="img-e4d03abe-2">
  <g stroke="#808080" fill="#FFFFFF" id="img-e4d03abe-3">
    <g transform="translate(115.71,5)">
      <path d="M-5,-5 L5,-5 5,5 -5,5  z" class="primitive"/>
    </g>
  </g>
  <g stroke="#808080" fill="#FFFFFF" id="img-e4d03abe-4">
    <g transform="translate(115.71,15)">
      <path d="M-5,-5 L5,-5 5,5 -5,5  z" class="primitive"/>
    </g>
  </g>
  <g stroke="#808080" fill="#FFFFFF" id="img-e4d03abe-5">
    <g transform="translate(115.71,25)">
      <path d="M-5,-5 L5,-5 5,5 -5,5  z" class="primitive"/>
    </g>
  </g>
  <g stroke="#808080" fill="#FFFFFF" id="img-e4d03abe-6">
    <g transform="translate(115.71,35)">
      <path d="M-5,-5 L5,-5 5,5 -5,5  z" class="primitive"/>
    </g>
  </g>
  <g stroke="#808080" fill="#FFFFFF" id="img-e4d03abe-7">
    <g transform="translate(115.71,45)">
      <path d="M-5,-5 L5,-5 5,5 -5,5  z" class="primitive"/>
    </g>
  </g>
  <g stroke="#808080" fill="#FFFFFF" id="img-e4d03abe-8">
    <g transform="translate(115.71,55)">
      <path d="M-5,-5 L5,-5 5,5 -5,5  z" class="primitive"/>
    </g>
  </g>
  <g stroke="#808080" fill="#FFFFFF" id="img-e4d03abe-9">
    <g transform="translate(115.71,65)">
      <path d="M-5,-5 L5,-5 5,5 -5,5  z" class="primitive"/>
    </g>
  </g>
  <g stroke="#808080" fill="#FFFFFF" id="img-e4d03abe-10">
    <g transform="translate(115.71,75)">
      <path d="M-5,-5 L5,-5 5,5 -5,5  z" class="primitive"/>
    </g>
  </g>
  <g stroke="#808080" fill="#FFFFFF" id="img-e4d03abe-11">
    <g transform="translate(115.71,85)">
      <path d="M-5,-5 L5,-5 5,5 -5,5  z" class="primitive"/>
    </g>
  </g>
  <g stroke="#808080" fill="#FFFFFF" id="img-e4d03abe-12">
    <g transform="translate(115.71,95)">
      <path d="M-5,-5 L5,-5 5,5 -5,5  z" class="primitive"/>
    </g>
  </g>
  <g stroke="#808080" fill="#FFFFFF" id="img-e4d03abe-13">
    <g transform="translate(105.71,5)">
      <path d="M-5,-5 L5,-5 5,5 -5,5  z" class="primitive"/>
    </g>
  </g>
  <g stroke="#808080" fill="#FFFFFF" id="img-e4d03abe-14">
    <g transform="translate(105.71,15)">
      <path d="M-5,-5 L5,-5 5,5 -5,5  z" class="primitive"/>
    </g>
  </g>
  <g stroke="#808080" fill="#FFFFFF" id="img-e4d03abe-15">
    <g transform="translate(105.71,25)">
      <path d="M-5,-5 L5,-5 5,5 -5,5  z" class="primitive"/>
    </g>
  </g>
  <g stroke="#808080" fill="#FFFFFF" id="img-e4d03abe-16">
    <g transform="translate(105.71,35)">
      <path d="M-5,-5 L5,-5 5,5 -5,5  z" class="primitive"/>
    </g>
  </g>
  <g stroke="#808080" fill="#FFFFFF" id="img-e4d03abe-17">
    <g transform="translate(105.71,45)">
      <path d="M-5,-5 L5,-5 5,5 -5,5  z" class="primitive"/>
    </g>
  </g>
  <g stroke="#808080" fill="#FFFFFF" id="img-e4d03abe-18">
    <g transform="translate(105.71,55)">
      <path d="M-5,-5 L5,-5 5,5 -5,5  z" class="primitive"/>
    </g>
  </g>
  <g stroke="#808080" fill="#FFFFFF" id="img-e4d03abe-19">
    <g transform="translate(105.71,65)">
      <path d="M-5,-5 L5,-5 5,5 -5,5  z" class="primitive"/>
    </g>
  </g>
  <g stroke="#808080" fill="#FFFFFF" id="img-e4d03abe-20">
    <g transform="translate(105.71,75)">
      <path d="M-5,-5 L5,-5 5,5 -5,5  z" class="primitive"/>
    </g>
  </g>
  <g stroke="#808080" fill="#FFFFFF" id="img-e4d03abe-21">
    <g transform="translate(105.71,85)">
      <path d="M-5,-5 L5,-5 5,5 -5,5  z" class="primitive"/>
    </g>
  </g>
  <g stroke="#808080" fill="#FFFFFF" id="img-e4d03abe-22">
    <g transform="translate(105.71,95)">
      <path d="M-5,-5 L5,-5 5,5 -5,5  z" class="primitive"/>
    </g>
  </g>
  <g stroke="#808080" fill="#FFFFFF" id="img-e4d03abe-23">
    <g transform="translate(95.71,5)">
      <path d="M-5,-5 L5,-5 5,5 -5,5  z" class="primitive"/>
    </g>
  </g>
  <g stroke="#808080" fill="#FFFFFF" id="img-e4d03abe-24">
    <g transform="translate(95.71,15)">
      <path d="M-5,-5 L5,-5 5,5 -5,5  z" class="primitive"/>
    </g>
  </g>
  <g stroke="#808080" fill="#FFFFFF" id="img-e4d03abe-25">
    <g transform="translate(95.71,25)">
      <path d="M-5,-5 L5,-5 5,5 -5,5  z" class="primitive"/>
    </g>
  </g>
  <g stroke="#808080" fill="#FFFFFF" id="img-e4d03abe-26">
    <g transform="translate(95.71,35)">
      <path d="M-5,-5 L5,-5 5,5 -5,5  z" class="primitive"/>
    </g>
  </g>
  <g stroke="#808080" fill="#FFFFFF" id="img-e4d03abe-27">
    <g transform="translate(95.71,45)">
      <path d="M-5,-5 L5,-5 5,5 -5,5  z" class="primitive"/>
    </g>
  </g>
  <g stroke="#808080" fill="#FFFFFF" id="img-e4d03abe-28">
    <g transform="translate(95.71,55)">
      <path d="M-5,-5 L5,-5 5,5 -5,5  z" class="primitive"/>
    </g>
  </g>
  <g stroke="#808080" fill="#FFFFFF" id="img-e4d03abe-29">
    <g transform="translate(95.71,65)">
      <path d="M-5,-5 L5,-5 5,5 -5,5  z" class="primitive"/>
    </g>
  </g>
  <g stroke="#808080" fill="#FFFFFF" id="img-e4d03abe-30">
    <g transform="translate(95.71,75)">
      <path d="M-5,-5 L5,-5 5,5 -5,5  z" class="primitive"/>
    </g>
  </g>
  <g stroke="#808080" fill="#FFFFFF" id="img-e4d03abe-31">
    <g transform="translate(95.71,85)">
      <path d="M-5,-5 L5,-5 5,5 -5,5  z" class="primitive"/>
    </g>
  </g>
  <g stroke="#808080" fill="#FFFFFF" id="img-e4d03abe-32">
    <g transform="translate(95.71,95)">
      <path d="M-5,-5 L5,-5 5,5 -5,5  z" class="primitive"/>
    </g>
  </g>
  <g stroke="#808080" fill="#FFFFFF" id="img-e4d03abe-33">
    <g transform="translate(85.71,5)">
      <path d="M-5,-5 L5,-5 5,5 -5,5  z" class="primitive"/>
    </g>
  </g>
  <g stroke="#808080" fill="#FFFFFF" id="img-e4d03abe-34">
    <g transform="translate(85.71,15)">
      <path d="M-5,-5 L5,-5 5,5 -5,5  z" class="primitive"/>
    </g>
  </g>
  <g stroke="#808080" fill="#FFFFFF" id="img-e4d03abe-35">
    <g transform="translate(85.71,25)">
      <path d="M-5,-5 L5,-5 5,5 -5,5  z" class="primitive"/>
    </g>
  </g>
  <g stroke="#808080" fill="#FFFFFF" id="img-e4d03abe-36">
    <g transform="translate(85.71,35)">
      <path d="M-5,-5 L5,-5 5,5 -5,5  z" class="primitive"/>
    </g>
  </g>
  <g stroke="#808080" fill="#FFFFFF" id="img-e4d03abe-37">
    <g transform="translate(85.71,45)">
      <path d="M-5,-5 L5,-5 5,5 -5,5  z" class="primitive"/>
    </g>
  </g>
  <g stroke="#808080" fill="#FFFFFF" id="img-e4d03abe-38">
    <g transform="translate(85.71,55)">
      <path d="M-5,-5 L5,-5 5,5 -5,5  z" class="primitive"/>
    </g>
  </g>
  <g stroke="#808080" fill="#FFFFFF" id="img-e4d03abe-39">
    <g transform="translate(85.71,65)">
      <path d="M-5,-5 L5,-5 5,5 -5,5  z" class="primitive"/>
    </g>
  </g>
  <g stroke="#808080" fill="#FFFFFF" id="img-e4d03abe-40">
    <g transform="translate(85.71,75)">
      <path d="M-5,-5 L5,-5 5,5 -5,5  z" class="primitive"/>
    </g>
  </g>
  <g stroke="#808080" fill="#FFFFFF" id="img-e4d03abe-41">
    <g transform="translate(85.71,85)">
      <path d="M-5,-5 L5,-5 5,5 -5,5  z" class="primitive"/>
    </g>
  </g>
  <g stroke="#808080" fill="#FFFFFF" id="img-e4d03abe-42">
    <g transform="translate(85.71,95)">
      <path d="M-5,-5 L5,-5 5,5 -5,5  z" class="primitive"/>
    </g>
  </g>
  <g stroke="#808080" fill="#FFFFFF" id="img-e4d03abe-43">
    <g transform="translate(75.71,5)">
      <path d="M-5,-5 L5,-5 5,5 -5,5  z" class="primitive"/>
    </g>
  </g>
  <g stroke="#808080" fill="#84C28E" id="img-e4d03abe-44">
    <g transform="translate(75.71,15)">
      <path d="M-5,-5 L5,-5 5,5 -5,5  z" class="primitive"/>
    </g>
  </g>
  <g stroke="#808080" fill="#FFFFFF" id="img-e4d03abe-45">
    <g transform="translate(75.71,25)">
      <path d="M-5,-5 L5,-5 5,5 -5,5  z" class="primitive"/>
    </g>
  </g>
  <g stroke="#808080" fill="#FFFFFF" id="img-e4d03abe-46">
    <g transform="translate(75.71,35)">
      <path d="M-5,-5 L5,-5 5,5 -5,5  z" class="primitive"/>
    </g>
  </g>
  <g stroke="#808080" fill="#FFFFFF" id="img-e4d03abe-47">
    <g transform="translate(75.71,45)">
      <path d="M-5,-5 L5,-5 5,5 -5,5  z" class="primitive"/>
    </g>
  </g>
  <g stroke="#808080" fill="#FFFFFF" id="img-e4d03abe-48">
    <g transform="translate(75.71,55)">
      <path d="M-5,-5 L5,-5 5,5 -5,5  z" class="primitive"/>
    </g>
  </g>
  <g stroke="#808080" fill="#FFFFFF" id="img-e4d03abe-49">
    <g transform="translate(75.71,65)">
      <path d="M-5,-5 L5,-5 5,5 -5,5  z" class="primitive"/>
    </g>
  </g>
  <g stroke="#808080" fill="#FFFFFF" id="img-e4d03abe-50">
    <g transform="translate(75.71,75)">
      <path d="M-5,-5 L5,-5 5,5 -5,5  z" class="primitive"/>
    </g>
  </g>
  <g stroke="#808080" fill="#FFFFFF" id="img-e4d03abe-51">
    <g transform="translate(75.71,85)">
      <path d="M-5,-5 L5,-5 5,5 -5,5  z" class="primitive"/>
    </g>
  </g>
  <g stroke="#808080" fill="#FFFFFF" id="img-e4d03abe-52">
    <g transform="translate(75.71,95)">
      <path d="M-5,-5 L5,-5 5,5 -5,5  z" class="primitive"/>
    </g>
  </g>
  <g stroke="#808080" fill="#FFFFFF" id="img-e4d03abe-53">
    <g transform="translate(65.71,5)">
      <path d="M-5,-5 L5,-5 5,5 -5,5  z" class="primitive"/>
    </g>
  </g>
  <g stroke="#808080" fill="#FFFFFF" id="img-e4d03abe-54">
    <g transform="translate(65.71,15)">
      <path d="M-5,-5 L5,-5 5,5 -5,5  z" class="primitive"/>
    </g>
  </g>
  <g stroke="#808080" fill="#FFFFFF" id="img-e4d03abe-55">
    <g transform="translate(65.71,25)">
      <path d="M-5,-5 L5,-5 5,5 -5,5  z" class="primitive"/>
    </g>
  </g>
  <g stroke="#808080" fill="#FFFFFF" id="img-e4d03abe-56">
    <g transform="translate(65.71,35)">
      <path d="M-5,-5 L5,-5 5,5 -5,5  z" class="primitive"/>
    </g>
  </g>
  <g stroke="#808080" fill="#FFFFFF" id="img-e4d03abe-57">
    <g transform="translate(65.71,45)">
      <path d="M-5,-5 L5,-5 5,5 -5,5  z" class="primitive"/>
    </g>
  </g>
  <g stroke="#808080" fill="#FFFFFF" id="img-e4d03abe-58">
    <g transform="translate(65.71,55)">
      <path d="M-5,-5 L5,-5 5,5 -5,5  z" class="primitive"/>
    </g>
  </g>
  <g stroke="#808080" fill="#FFFFFF" id="img-e4d03abe-59">
    <g transform="translate(65.71,65)">
      <path d="M-5,-5 L5,-5 5,5 -5,5  z" class="primitive"/>
    </g>
  </g>
  <g stroke="#808080" fill="#FFFFFF" id="img-e4d03abe-60">
    <g transform="translate(65.71,75)">
      <path d="M-5,-5 L5,-5 5,5 -5,5  z" class="primitive"/>
    </g>
  </g>
  <g stroke="#808080" fill="#FFFFFF" id="img-e4d03abe-61">
    <g transform="translate(65.71,85)">
      <path d="M-5,-5 L5,-5 5,5 -5,5  z" class="primitive"/>
    </g>
  </g>
  <g stroke="#808080" fill="#FFFFFF" id="img-e4d03abe-62">
    <g transform="translate(65.71,95)">
      <path d="M-5,-5 L5,-5 5,5 -5,5  z" class="primitive"/>
    </g>
  </g>
  <g stroke="#808080" fill="#FFFFFF" id="img-e4d03abe-63">
    <g transform="translate(55.71,5)">
      <path d="M-5,-5 L5,-5 5,5 -5,5  z" class="primitive"/>
    </g>
  </g>
  <g stroke="#808080" fill="#FFFFFF" id="img-e4d03abe-64">
    <g transform="translate(55.71,15)">
      <path d="M-5,-5 L5,-5 5,5 -5,5  z" class="primitive"/>
    </g>
  </g>
  <g stroke="#808080" fill="#FF0000" id="img-e4d03abe-65">
    <g transform="translate(55.71,25)">
      <path d="M-5,-5 L5,-5 5,5 -5,5  z" class="primitive"/>
    </g>
  </g>
  <g stroke="#808080" fill="#FFFFFF" id="img-e4d03abe-66">
    <g transform="translate(55.71,35)">
      <path d="M-5,-5 L5,-5 5,5 -5,5  z" class="primitive"/>
    </g>
  </g>
  <g stroke="#808080" fill="#FFFFFF" id="img-e4d03abe-67">
    <g transform="translate(55.71,45)">
      <path d="M-5,-5 L5,-5 5,5 -5,5  z" class="primitive"/>
    </g>
  </g>
  <g stroke="#808080" fill="#FFFFFF" id="img-e4d03abe-68">
    <g transform="translate(55.71,55)">
      <path d="M-5,-5 L5,-5 5,5 -5,5  z" class="primitive"/>
    </g>
  </g>
  <g stroke="#808080" fill="#FFFFFF" id="img-e4d03abe-69">
    <g transform="translate(55.71,65)">
      <path d="M-5,-5 L5,-5 5,5 -5,5  z" class="primitive"/>
    </g>
  </g>
  <g stroke="#808080" fill="#FFC3C3" id="img-e4d03abe-70">
    <g transform="translate(55.71,75)">
      <path d="M-5,-5 L5,-5 5,5 -5,5  z" class="primitive"/>
    </g>
  </g>
  <g stroke="#808080" fill="#FFFFFF" id="img-e4d03abe-71">
    <g transform="translate(55.71,85)">
      <path d="M-5,-5 L5,-5 5,5 -5,5  z" class="primitive"/>
    </g>
  </g>
  <g stroke="#808080" fill="#FFFFFF" id="img-e4d03abe-72">
    <g transform="translate(55.71,95)">
      <path d="M-5,-5 L5,-5 5,5 -5,5  z" class="primitive"/>
    </g>
  </g>
  <g stroke="#808080" fill="#FFFFFF" id="img-e4d03abe-73">
    <g transform="translate(45.71,5)">
      <path d="M-5,-5 L5,-5 5,5 -5,5  z" class="primitive"/>
    </g>
  </g>
  <g stroke="#808080" fill="#FFFFFF" id="img-e4d03abe-74">
    <g transform="translate(45.71,15)">
      <path d="M-5,-5 L5,-5 5,5 -5,5  z" class="primitive"/>
    </g>
  </g>
  <g stroke="#808080" fill="#FFFFFF" id="img-e4d03abe-75">
    <g transform="translate(45.71,25)">
      <path d="M-5,-5 L5,-5 5,5 -5,5  z" class="primitive"/>
    </g>
  </g>
  <g stroke="#808080" fill="#FFFFFF" id="img-e4d03abe-76">
    <g transform="translate(45.71,35)">
      <path d="M-5,-5 L5,-5 5,5 -5,5  z" class="primitive"/>
    </g>
  </g>
  <g stroke="#808080" fill="#FFFFFF" id="img-e4d03abe-77">
    <g transform="translate(45.71,45)">
      <path d="M-5,-5 L5,-5 5,5 -5,5  z" class="primitive"/>
    </g>
  </g>
  <g stroke="#808080" fill="#FFFFFF" id="img-e4d03abe-78">
    <g transform="translate(45.71,55)">
      <path d="M-5,-5 L5,-5 5,5 -5,5  z" class="primitive"/>
    </g>
  </g>
  <g stroke="#808080" fill="#FFFFFF" id="img-e4d03abe-79">
    <g transform="translate(45.71,65)">
      <path d="M-5,-5 L5,-5 5,5 -5,5  z" class="primitive"/>
    </g>
  </g>
  <g stroke="#808080" fill="#FFFFFF" id="img-e4d03abe-80">
    <g transform="translate(45.71,75)">
      <path d="M-5,-5 L5,-5 5,5 -5,5  z" class="primitive"/>
    </g>
  </g>
  <g stroke="#808080" fill="#FFFFFF" id="img-e4d03abe-81">
    <g transform="translate(45.71,85)">
      <path d="M-5,-5 L5,-5 5,5 -5,5  z" class="primitive"/>
    </g>
  </g>
  <g stroke="#808080" fill="#FFFFFF" id="img-e4d03abe-82">
    <g transform="translate(45.71,95)">
      <path d="M-5,-5 L5,-5 5,5 -5,5  z" class="primitive"/>
    </g>
  </g>
  <g stroke="#808080" fill="#FFFFFF" id="img-e4d03abe-83">
    <g transform="translate(35.71,5)">
      <path d="M-5,-5 L5,-5 5,5 -5,5  z" class="primitive"/>
    </g>
  </g>
  <g stroke="#808080" fill="#FFFFFF" id="img-e4d03abe-84">
    <g transform="translate(35.71,15)">
      <path d="M-5,-5 L5,-5 5,5 -5,5  z" class="primitive"/>
    </g>
  </g>
  <g stroke="#808080" fill="#008015" id="img-e4d03abe-85">
    <g transform="translate(35.71,25)">
      <path d="M-5,-5 L5,-5 5,5 -5,5  z" class="primitive"/>
    </g>
  </g>
  <g stroke="#808080" fill="#FFFFFF" id="img-e4d03abe-86">
    <g transform="translate(35.71,35)">
      <path d="M-5,-5 L5,-5 5,5 -5,5  z" class="primitive"/>
    </g>
  </g>
  <g stroke="#808080" fill="#FFFFFF" id="img-e4d03abe-87">
    <g transform="translate(35.71,45)">
      <path d="M-5,-5 L5,-5 5,5 -5,5  z" class="primitive"/>
    </g>
  </g>
  <g stroke="#808080" fill="#FFFFFF" id="img-e4d03abe-88">
    <g transform="translate(35.71,55)">
      <path d="M-5,-5 L5,-5 5,5 -5,5  z" class="primitive"/>
    </g>
  </g>
  <g stroke="#808080" fill="#FFFFFF" id="img-e4d03abe-89">
    <g transform="translate(35.71,65)">
      <path d="M-5,-5 L5,-5 5,5 -5,5  z" class="primitive"/>
    </g>
  </g>
  <g stroke="#808080" fill="#FFFFFF" id="img-e4d03abe-90">
    <g transform="translate(35.71,75)">
      <path d="M-5,-5 L5,-5 5,5 -5,5  z" class="primitive"/>
    </g>
  </g>
  <g stroke="#808080" fill="#FFFFFF" id="img-e4d03abe-91">
    <g transform="translate(35.71,85)">
      <path d="M-5,-5 L5,-5 5,5 -5,5  z" class="primitive"/>
    </g>
  </g>
  <g stroke="#808080" fill="#FFFFFF" id="img-e4d03abe-92">
    <g transform="translate(35.71,95)">
      <path d="M-5,-5 L5,-5 5,5 -5,5  z" class="primitive"/>
    </g>
  </g>
  <g stroke="#808080" fill="#FFFFFF" id="img-e4d03abe-93">
    <g transform="translate(25.71,5)">
      <path d="M-5,-5 L5,-5 5,5 -5,5  z" class="primitive"/>
    </g>
  </g>
  <g stroke="#808080" fill="#FFFFFF" id="img-e4d03abe-94">
    <g transform="translate(25.71,15)">
      <path d="M-5,-5 L5,-5 5,5 -5,5  z" class="primitive"/>
    </g>
  </g>
  <g stroke="#808080" fill="#FFFFFF" id="img-e4d03abe-95">
    <g transform="translate(25.71,25)">
      <path d="M-5,-5 L5,-5 5,5 -5,5  z" class="primitive"/>
    </g>
  </g>
  <g stroke="#808080" fill="#FFFFFF" id="img-e4d03abe-96">
    <g transform="translate(25.71,35)">
      <path d="M-5,-5 L5,-5 5,5 -5,5  z" class="primitive"/>
    </g>
  </g>
  <g stroke="#808080" fill="#FFFFFF" id="img-e4d03abe-97">
    <g transform="translate(25.71,45)">
      <path d="M-5,-5 L5,-5 5,5 -5,5  z" class="primitive"/>
    </g>
  </g>
  <g stroke="#808080" fill="#FFFFFF" id="img-e4d03abe-98">
    <g transform="translate(25.71,55)">
      <path d="M-5,-5 L5,-5 5,5 -5,5  z" class="primitive"/>
    </g>
  </g>
  <g stroke="#808080" fill="#FFFFFF" id="img-e4d03abe-99">
    <g transform="translate(25.71,65)">
      <path d="M-5,-5 L5,-5 5,5 -5,5  z" class="primitive"/>
    </g>
  </g>
  <g stroke="#808080" fill="#FFFFFF" id="img-e4d03abe-100">
    <g transform="translate(25.71,75)">
      <path d="M-5,-5 L5,-5 5,5 -5,5  z" class="primitive"/>
    </g>
  </g>
  <g stroke="#808080" fill="#FFFFFF" id="img-e4d03abe-101">
    <g transform="translate(25.71,85)">
      <path d="M-5,-5 L5,-5 5,5 -5,5  z" class="primitive"/>
    </g>
  </g>
  <g stroke="#808080" fill="#FFFFFF" id="img-e4d03abe-102">
    <g transform="translate(25.71,95)">
      <path d="M-5,-5 L5,-5 5,5 -5,5  z" class="primitive"/>
    </g>
  </g>
</g>
<g stroke="#000000" stroke-width="0.35" id="img-e4d03abe-103">
  <g transform="translate(75.71,60)">
    <path fill="none" d="M0,-5 L0,5 " class="primitive"/>
  </g>
</g>
<g stroke="#000000" stroke-width="0.35" id="img-e4d03abe-104">
  <g transform="translate(70.71,55)">
    <path fill="none" d="M5,0 L-5,0 " class="primitive"/>
  </g>
</g>
<g stroke="#000000" stroke-width="0.35" id="img-e4d03abe-105">
  <g transform="translate(80.71,55)">
    <path fill="none" d="M-5,0 L5,0 " class="primitive"/>
  </g>
</g>
<g stroke="#000000" stroke-width="0.35" id="img-e4d03abe-106">
  <g transform="translate(75.71,50)">
    <path fill="none" d="M0,5 L0,-5 " class="primitive"/>
  </g>
</g>
<g stroke="#000000" stroke-width="0.35" id="img-e4d03abe-107">
  <g transform="translate(75.71,63.67)">
    <path d="M0,1.33 L0.7,-0.67 -0.7,-0.67  z" class="primitive"/>
  </g>
</g>
<g stroke="#000000" stroke-width="0.35" id="img-e4d03abe-108">
  <g transform="translate(67.04,55)">
    <path d="M-1.33,0 L0.67,0.7 0.67,-0.7  z" class="primitive"/>
  </g>
</g>
<g stroke="#000000" stroke-width="0.35" id="img-e4d03abe-109">
  <g transform="translate(84.38,55)">
    <path d="M1.33,0 L-0.67,-0.7 -0.67,0.7  z" class="primitive"/>
  </g>
</g>
<g stroke="#000000" stroke-width="0.35" id="img-e4d03abe-110">
  <g transform="translate(75.71,46.33)">
    <path d="M0,-1.33 L-0.7,0.67 0.7,0.67  z" class="primitive"/>
  </g>
</g>
<g stroke="#000000" id="img-e4d03abe-111">
  <g transform="translate(75.71,16)">
    <g class="primitive">
      <text text-anchor="middle" dy="0.35em">0.5</text>
    </g>
  </g>
</g>
<g stroke="#000000" id="img-e4d03abe-112">
  <g transform="translate(55.71,26)">
    <g class="primitive">
      <text text-anchor="middle" dy="0.35em">-1.0</text>
    </g>
  </g>
</g>
<g stroke="#000000" id="img-e4d03abe-113">
  <g transform="translate(55.71,76)">
    <g class="primitive">
      <text text-anchor="middle" dy="0.35em">-0.25</text>
    </g>
  </g>
</g>
<g stroke="#000000" id="img-e4d03abe-114">
  <g transform="translate(35.71,26)">
    <g class="primitive">
      <text text-anchor="middle" dy="0.35em">1.0</text>
    </g>
  </g>
</g>
<g fill="#0000FF" id="img-e4d03abe-115">
  <g transform="translate(75.71,55)">
    <circle cx="0" cy="0" r="3" class="primitive"/>
  </g>
</g>
</svg>
