<?xml version="1.0" encoding="UTF-8"?>
<svg xmlns="http://www.w3.org/2000/svg"
     xmlns:xlink="http://www.w3.org/1999/xlink"
     version="1.2"
     width="141.42mm" height="100mm" viewBox="0 0 141.42 100"
     stroke="none"
     fill="#000000"
     stroke-width="0.3"
     font-size="3.88"
>
<defs>
  <marker id="arrow" markerWidth="15" markerHeight="7" refX="5" refY="3.5" orient="auto" markerUnits="strokeWidth">
    <path d="M0,0 L15,3.5 L0,7 z" stroke="context-stroke" fill="context-stroke"/>
  </marker>
</defs>
<g stroke="#808080" stroke-width="0.71" id="img-284a8e65-1">
  <g transform="translate(70.71,50)">
    <path d="M-50,-50 L50,-50 50,50 -50,50  z" class="primitive"/>
  </g>
</g>
<g stroke-width="0.35" id="img-284a8e65-2">
  <g stroke="#808080" fill="#FFFFFF" id="img-284a8e65-3">
    <g transform="translate(115.16,5.56)">
      <path d="M-5.56,-5.56 L5.56,-5.56 5.56,5.56 -5.56,5.56  z" class="primitive"/>
    </g>
  </g>
  <g stroke="#808080" fill="#FFFFFF" id="img-284a8e65-4">
    <g transform="translate(115.16,16.67)">
      <path d="M-5.56,-5.56 L5.56,-5.56 5.56,5.56 -5.56,5.56  z" class="primitive"/>
    </g>
  </g>
  <g stroke="#808080" fill="#FFFFFF" id="img-284a8e65-5">
    <g transform="translate(115.16,27.78)">
      <path d="M-5.56,-5.56 L5.56,-5.56 5.56,5.56 -5.56,5.56  z" class="primitive"/>
    </g>
  </g>
  <g stroke="#808080" fill="#FFFFFF" id="img-284a8e65-6">
    <g transform="translate(115.16,38.89)">
      <path d="M-5.56,-5.56 L5.56,-5.56 5.56,5.56 -5.56,5.56  z" class="primitive"/>
    </g>
  </g>
  <g stroke="#808080" fill="#FFFFFF" id="img-284a8e65-7">
    <g transform="translate(115.16,50)">
      <path d="M-5.56,-5.56 L5.56,-5.56 5.56,5.56 -5.56,5.56  z" class="primitive"/>
    </g>
  </g>
  <g stroke="#808080" fill="#FFFFFF" id="img-284a8e65-8">
    <g transform="translate(115.16,61.11)">
      <path d="M-5.56,-5.56 L5.56,-5.56 5.56,5.56 -5.56,5.56  z" class="primitive"/>
    </g>
  </g>
  <g stroke="#808080" fill="#FFFFFF" id="img-284a8e65-9">
    <g transform="translate(115.16,72.22)">
      <path d="M-5.56,-5.56 L5.56,-5.56 5.56,5.56 -5.56,5.56  z" class="primitive"/>
    </g>
  </g>
  <g stroke="#808080" fill="#FFFFFF" id="img-284a8e65-10">
    <g transform="translate(115.16,83.33)">
      <path d="M-5.56,-5.56 L5.56,-5.56 5.56,5.56 -5.56,5.56  z" class="primitive"/>
    </g>
  </g>
  <g stroke="#808080" fill="#FFFFFF" id="img-284a8e65-11">
    <g transform="translate(115.16,94.44)">
      <path d="M-5.56,-5.56 L5.56,-5.56 5.56,5.56 -5.56,5.56  z" class="primitive"/>
    </g>
  </g>
  <g stroke="#808080" fill="#FFFFFF" id="img-284a8e65-12">
    <g transform="translate(104.04,5.56)">
      <path d="M-5.56,-5.56 L5.56,-5.56 5.56,5.56 -5.56,5.56  z" class="primitive"/>
    </g>
  </g>
  <g stroke="#808080" fill="#FFFFFF" id="img-284a8e65-13">
    <g transform="translate(104.04,16.67)">
      <path d="M-5.56,-5.56 L5.56,-5.56 5.56,5.56 -5.56,5.56  z" class="primitive"/>
    </g>
  </g>
  <g stroke="#808080" fill="#FFFFFF" id="img-284a8e65-14">
    <g transform="translate(104.04,27.78)">
      <path d="M-5.56,-5.56 L5.56,-5.56 5.56,5.56 -5.56,5.56  z" class="primitive"/>
    </g>
  </g>
  <g stroke="#808080" fill="#FFFFFF" id="img-284a8e65-15">
    <g transform="translate(104.04,38.89)">
      <path d="M-5.56,-5.56 L5.56,-5.56 5.56,5.56 -5.56,5.56  z" class="primitive"/>
    </g>
  </g>
  <g stroke="#808080" fill="#FFFFFF" id="img-284a8e65-16">
    <g transform="translate(104.04,50)">
      <path d="M-5.56,-5.56 L5.56,-5.56 5.56,5.56 -5.56,5.56  z" class="primitive"/>
    </g>
  </g>
  <g stroke="#808080" fill="#FFFFFF" id="img-284a8e65-17">
    <g transform="translate(104.04,61.11)">
      <path d="M-5.56,-5.56 L5.56,-5.56 5.56,5.56 -5.56,5.56  z" class="primitive"/>
    </g>
  </g>
  <g stroke="#808080" fill="#FFFFFF" id="img-284a8e65-18">
    <g transform="translate(104.04,72.22)">
      <path d="M-5.56,-5.56 L5.56,-5.56 5.56,5.56 -5.56,5.56  z" class="primitive"/>
    </g>
  </g>
  <g stroke="#808080" fill="#FFFFFF" id="img-284a8e65-19">
    <g transform="translate(104.04,83.33)">
      <path d="M-5.56,-5.56 L5.56,-5.56 5.56,5.56 -5.56,5.56  z" class="primitive"/>
    </g>
  </g>
  <g stroke="#808080" fill="#FFFFFF" id="img-284a8e65-20">
    <g transform="translate(104.04,94.44)">
      <path d="M-5.56,-5.56 L5.56,-5.56 5.56,5.56 -5.56,5.56  z" class="primitive"/>
    </g>
  </g>
  <g stroke="#808080" fill="#FFFFFF" id="img-284a8e65-21">
    <g transform="translate(92.93,5.56)">
      <path d="M-5.56,-5.56 L5.56,-5.56 5.56,5.56 -5.56,5.56  z" class="primitive"/>
    </g>
  </g>
  <g stroke="#808080" fill="#FFFFFF" id="img-284a8e65-22">
    <g transform="translate(92.93,16.67)">
      <path d="M-5.56,-5.56 L5.56,-5.56 5.56,5.56 -5.56,5.56  z" class="primitive"/>
    </g>
  </g>
  <g stroke="#808080" fill="#FFFFFF" id="img-284a8e65-23">
    <g transform="translate(92.93,27.78)">
      <path d="M-5.56,-5.56 L5.56,-5.56 5.56,5.56 -5.56,5.56  z" class="primitive"/>
    </g>
  </g>
  <g stroke="#808080" fill="#FFFFFF" id="img-284a8e65-24">
    <g transform="translate(92.93,38.89)">
      <path d="M-5.56,-5.56 L5.56,-5.56 5.56,5.56 -5.56,5.56  z" class="primitive"/>
    </g>
  </g>
  <g stroke="#808080" fill="#FFFFFF" id="img-284a8e65-25">
    <g transform="translate(92.93,50)">
      <path d="M-5.56,-5.56 L5.56,-5.56 5.56,5.56 -5.56,5.56  z" class="primitive"/>
    </g>
  </g>
  <g stroke="#808080" fill="#FFFFFF" id="img-284a8e65-26">
    <g transform="translate(92.93,61.11)">
      <path d="M-5.56,-5.56 L5.56,-5.56 5.56,5.56 -5.56,5.56  z" class="primitive"/>
    </g>
  </g>
  <g stroke="#808080" fill="#FFFFFF" id="img-284a8e65-27">
    <g transform="translate(92.93,72.22)">
      <path d="M-5.56,-5.56 L5.56,-5.56 5.56,5.56 -5.56,5.56  z" class="primitive"/>
    </g>
  </g>
  <g stroke="#808080" fill="#FFFFFF" id="img-284a8e65-28">
    <g transform="translate(92.93,83.33)">
      <path d="M-5.56,-5.56 L5.56,-5.56 5.56,5.56 -5.56,5.56  z" class="primitive"/>
    </g>
  </g>
  <g stroke="#808080" fill="#FFFFFF" id="img-284a8e65-29">
    <g transform="translate(92.93,94.44)">
      <path d="M-5.56,-5.56 L5.56,-5.56 5.56,5.56 -5.56,5.56  z" class="primitive"/>
    </g>
  </g>
  <g stroke="#808080" fill="#84C28E" id="img-284a8e65-30">
    <g transform="translate(81.82,5.56)">
      <path d="M-5.56,-5.56 L5.56,-5.56 5.56,5.56 -5.56,5.56  z" class="primitive"/>
    </g>
  </g>
  <g stroke="#808080" fill="#FFFFFF" id="img-284a8e65-31">
    <g transform="translate(81.82,16.67)">
      <path d="M-5.56,-5.56 L5.56,-5.56 5.56,5.56 -5.56,5.56  z" class="primitive"/>
    </g>
  </g>
  <g stroke="#808080" fill="#FFFFFF" id="img-284a8e65-32">
    <g transform="translate(81.82,27.78)">
      <path d="M-5.56,-5.56 L5.56,-5.56 5.56,5.56 -5.56,5.56  z" class="primitive"/>
    </g>
  </g>
  <g stroke="#808080" fill="#FFFFFF" id="img-284a8e65-33">
    <g transform="translate(81.82,38.89)">
      <path d="M-5.56,-5.56 L5.56,-5.56 5.56,5.56 -5.56,5.56  z" class="primitive"/>
    </g>
  </g>
  <g stroke="#808080" fill="#FFFFFF" id="img-284a8e65-34">
    <g transform="translate(81.82,50)">
      <path d="M-5.56,-5.56 L5.56,-5.56 5.56,5.56 -5.56,5.56  z" class="primitive"/>
    </g>
  </g>
  <g stroke="#808080" fill="#FFFFFF" id="img-284a8e65-35">
    <g transform="translate(81.82,61.11)">
      <path d="M-5.56,-5.56 L5.56,-5.56 5.56,5.56 -5.56,5.56  z" class="primitive"/>
    </g>
  </g>
  <g stroke="#808080" fill="#FFFFFF" id="img-284a8e65-36">
    <g transform="translate(81.82,72.22)">
      <path d="M-5.56,-5.56 L5.56,-5.56 5.56,5.56 -5.56,5.56  z" class="primitive"/>
    </g>
  </g>
  <g stroke="#808080" fill="#FFFFFF" id="img-284a8e65-37">
    <g transform="translate(81.82,83.33)">
      <path d="M-5.56,-5.56 L5.56,-5.56 5.56,5.56 -5.56,5.56  z" class="primitive"/>
    </g>
  </g>
  <g stroke="#808080" fill="#FFFFFF" id="img-284a8e65-38">
    <g transform="translate(81.82,94.44)">
      <path d="M-5.56,-5.56 L5.56,-5.56 5.56,5.56 -5.56,5.56  z" class="primitive"/>
    </g>
  </g>
  <g stroke="#808080" fill="#FFFFFF" id="img-284a8e65-39">
    <g transform="translate(70.71,5.56)">
      <path d="M-5.56,-5.56 L5.56,-5.56 5.56,5.56 -5.56,5.56  z" class="primitive"/>
    </g>
  </g>
  <g stroke="#808080" fill="#FFFFFF" id="img-284a8e65-40">
    <g transform="translate(70.71,16.67)">
      <path d="M-5.56,-5.56 L5.56,-5.56 5.56,5.56 -5.56,5.56  z" class="primitive"/>
    </g>
  </g>
  <g stroke="#808080" fill="#FFFFFF" id="img-284a8e65-41">
    <g transform="translate(70.71,27.78)">
      <path d="M-5.56,-5.56 L5.56,-5.56 5.56,5.56 -5.56,5.56  z" class="primitive"/>
    </g>
  </g>
  <g stroke="#808080" fill="#FFFFFF" id="img-284a8e65-42">
    <g transform="translate(70.71,38.89)">
      <path d="M-5.56,-5.56 L5.56,-5.56 5.56,5.56 -5.56,5.56  z" class="primitive"/>
    </g>
  </g>
  <g stroke="#808080" fill="#FFFFFF" id="img-284a8e65-43">
    <g transform="translate(70.71,50)">
      <path d="M-5.56,-5.56 L5.56,-5.56 5.56,5.56 -5.56,5.56  z" class="primitive"/>
    </g>
  </g>
  <g stroke="#808080" fill="#FFFFFF" id="img-284a8e65-44">
    <g transform="translate(70.71,61.11)">
      <path d="M-5.56,-5.56 L5.56,-5.56 5.56,5.56 -5.56,5.56  z" class="primitive"/>
    </g>
  </g>
  <g stroke="#808080" fill="#FFFFFF" id="img-284a8e65-45">
    <g transform="translate(70.71,72.22)">
      <path d="M-5.56,-5.56 L5.56,-5.56 5.56,5.56 -5.56,5.56  z" class="primitive"/>
    </g>
  </g>
  <g stroke="#808080" fill="#FFFFFF" id="img-284a8e65-46">
    <g transform="translate(70.71,83.33)">
      <path d="M-5.56,-5.56 L5.56,-5.56 5.56,5.56 -5.56,5.56  z" class="primitive"/>
    </g>
  </g>
  <g stroke="#808080" fill="#FFFFFF" id="img-284a8e65-47">
    <g transform="translate(70.71,94.44)">
      <path d="M-5.56,-5.56 L5.56,-5.56 5.56,5.56 -5.56,5.56  z" class="primitive"/>
    </g>
  </g>
  <g stroke="#808080" fill="#FFFFFF" id="img-284a8e65-48">
    <g transform="translate(59.6,5.56)">
      <path d="M-5.56,-5.56 L5.56,-5.56 5.56,5.56 -5.56,5.56  z" class="primitive"/>
    </g>
  </g>
  <g stroke="#808080" fill="#FF0000" id="img-284a8e65-49">
    <g transform="translate(59.6,16.67)">
      <path d="M-5.56,-5.56 L5.56,-5.56 5.56,5.56 -5.56,5.56  z" class="primitive"/>
    </g>
  </g>
  <g stroke="#808080" fill="#FFFFFF" id="img-284a8e65-50">
    <g transform="translate(59.6,27.78)">
      <path d="M-5.56,-5.56 L5.56,-5.56 5.56,5.56 -5.56,5.56  z" class="primitive"/>
    </g>
  </g>
  <g stroke="#808080" fill="#FFFFFF" id="img-284a8e65-51">
    <g transform="translate(59.6,38.89)">
      <path d="M-5.56,-5.56 L5.56,-5.56 5.56,5.56 -5.56,5.56  z" class="primitive"/>
    </g>
  </g>
  <g stroke="#808080" fill="#FFFFFF" id="img-284a8e65-52">
    <g transform="translate(59.6,50)">
      <path d="M-5.56,-5.56 L5.56,-5.56 5.56,5.56 -5.56,5.56  z" class="primitive"/>
    </g>
  </g>
  <g stroke="#808080" fill="#FFFFFF" id="img-284a8e65-53">
    <g transform="translate(59.6,61.11)">
      <path d="M-5.56,-5.56 L5.56,-5.56 5.56,5.56 -5.56,5.56  z" class="primitive"/>
    </g>
  </g>
  <g stroke="#808080" fill="#FFC3C3" id="img-284a8e65-54">
    <g transform="translate(59.6,72.22)">
      <path d="M-5.56,-5.56 L5.56,-5.56 5.56,5.56 -5.56,5.56  z" class="primitive"/>
    </g>
  </g>
  <g stroke="#808080" fill="#FFFFFF" id="img-284a8e65-55">
    <g transform="translate(59.6,83.33)">
      <path d="M-5.56,-5.56 L5.56,-5.56 5.56,5.56 -5.56,5.56  z" class="primitive"/>
    </g>
  </g>
  <g stroke="#808080" fill="#FFFFFF" id="img-284a8e65-56">
    <g transform="translate(59.6,94.44)">
      <path d="M-5.56,-5.56 L5.56,-5.56 5.56,5.56 -5.56,5.56  z" class="primitive"/>
    </g>
  </g>
  <g stroke="#808080" fill="#FFFFFF" id="img-284a8e65-57">
    <g transform="translate(48.49,5.56)">
      <path d="M-5.56,-5.56 L5.56,-5.56 5.56,5.56 -5.56,5.56  z" class="primitive"/>
    </g>
  </g>
  <g stroke="#808080" fill="#FFFFFF" id="img-284a8e65-58">
    <g transform="translate(48.49,16.67)">
      <path d="M-5.56,-5.56 L5.56,-5.56 5.56,5.56 -5.56,5.56  z" class="primitive"/>
    </g>
  </g>
  <g stroke="#808080" fill="#FFFFFF" id="img-284a8e65-59">
    <g transform="translate(48.49,27.78)">
      <path d="M-5.56,-5.56 L5.56,-5.56 5.56,5.56 -5.56,5.56  z" class="primitive"/>
    </g>
  </g>
  <g stroke="#808080" fill="#FFFFFF" id="img-284a8e65-60">
    <g transform="translate(48.49,38.89)">
      <path d="M-5.56,-5.56 L5.56,-5.56 5.56,5.56 -5.56,5.56  z" class="primitive"/>
    </g>
  </g>
  <g stroke="#808080" fill="#FFFFFF" id="img-284a8e65-61">
    <g transform="translate(48.49,50)">
      <path d="M-5.56,-5.56 L5.56,-5.56 5.56,5.56 -5.56,5.56  z" class="primitive"/>
    </g>
  </g>
  <g stroke="#808080" fill="#FFFFFF" id="img-284a8e65-62">
    <g transform="translate(48.49,61.11)">
      <path d="M-5.56,-5.56 L5.56,-5.56 5.56,5.56 -5.56,5.56  z" class="primitive"/>
    </g>
  </g>
  <g stroke="#808080" fill="#FFFFFF" id="img-284a8e65-63">
    <g transform="translate(48.49,72.22)">
      <path d="M-5.56,-5.56 L5.56,-5.56 5.56,5.56 -5.56,5.56  z" class="primitive"/>
    </g>
  </g>
  <g stroke="#808080" fill="#FFFFFF" id="img-284a8e65-64">
    <g transform="translate(48.49,83.33)">
      <path d="M-5.56,-5.56 L5.56,-5.56 5.56,5.56 -5.56,5.56  z" class="primitive"/>
    </g>
  </g>
  <g stroke="#808080" fill="#FFFFFF" id="img-284a8e65-65">
    <g transform="translate(48.49,94.44)">
      <path d="M-5.56,-5.56 L5.56,-5.56 5.56,5.56 -5.56,5.56  z" class="primitive"/>
    </g>
  </g>
  <g stroke="#808080" fill="#FFFFFF" id="img-284a8e65-66">
    <g transform="translate(37.38,5.56)">
      <path d="M-5.56,-5.56 L5.56,-5.56 5.56,5.56 -5.56,5.56  z" class="primitive"/>
    </g>
  </g>
  <g stroke="#808080" fill="#008015" id="img-284a8e65-67">
    <g transform="translate(37.38,16.67)">
      <path d="M-5.56,-5.56 L5.56,-5.56 5.56,5.56 -5.56,5.56  z" class="primitive"/>
    </g>
  </g>
  <g stroke="#808080" fill="#FFFFFF" id="img-284a8e65-68">
    <g transform="translate(37.38,27.78)">
      <path d="M-5.56,-5.56 L5.56,-5.56 5.56,5.56 -5.56,5.56  z" class="primitive"/>
    </g>
  </g>
  <g stroke="#808080" fill="#FFFFFF" id="img-284a8e65-69">
    <g transform="translate(37.38,38.89)">
      <path d="M-5.56,-5.56 L5.56,-5.56 5.56,5.56 -5.56,5.56  z" class="primitive"/>
    </g>
  </g>
  <g stroke="#808080" fill="#FFFFFF" id="img-284a8e65-70">
    <g transform="translate(37.38,50)">
      <path d="M-5.56,-5.56 L5.56,-5.56 5.56,5.56 -5.56,5.56  z" class="primitive"/>
    </g>
  </g>
  <g stroke="#808080" fill="#FFFFFF" id="img-284a8e65-71">
    <g transform="translate(37.38,61.11)">
      <path d="M-5.56,-5.56 L5.56,-5.56 5.56,5.56 -5.56,5.56  z" class="primitive"/>
    </g>
  </g>
  <g stroke="#808080" fill="#FFFFFF" id="img-284a8e65-72">
    <g transform="translate(37.38,72.22)">
      <path d="M-5.56,-5.56 L5.56,-5.56 5.56,5.56 -5.56,5.56  z" class="primitive"/>
    </g>
  </g>
  <g stroke="#808080" fill="#FFFFFF" id="img-284a8e65-73">
    <g transform="translate(37.38,83.33)">
      <path d="M-5.56,-5.56 L5.56,-5.56 5.56,5.56 -5.56,5.56  z" class="primitive"/>
    </g>
  </g>
  <g stroke="#808080" fill="#FFFFFF" id="img-284a8e65-74">
    <g transform="translate(37.38,94.44)">
      <path d="M-5.56,-5.56 L5.56,-5.56 5.56,5.56 -5.56,5.56  z" class="primitive"/>
    </g>
  </g>
  <g stroke="#808080" fill="#FFFFFF" id="img-284a8e65-75">
    <g transform="translate(26.27,5.56)">
      <path d="M-5.56,-5.56 L5.56,-5.56 5.56,5.56 -5.56,5.56  z" class="primitive"/>
    </g>
  </g>
  <g stroke="#808080" fill="#FFFFFF" id="img-284a8e65-76">
    <g transform="translate(26.27,16.67)">
      <path d="M-5.56,-5.56 L5.56,-5.56 5.56,5.56 -5.56,5.56  z" class="primitive"/>
    </g>
  </g>
  <g stroke="#808080" fill="#FFFFFF" id="img-284a8e65-77">
    <g transform="translate(26.27,27.78)">
      <path d="M-5.56,-5.56 L5.56,-5.56 5.56,5.56 -5.56,5.56  z" class="primitive"/>
    </g>
  </g>
  <g stroke="#808080" fill="#FFFFFF" id="img-284a8e65-78">
    <g transform="translate(26.27,38.89)">
      <path d="M-5.56,-5.56 L5.56,-5.56 5.56,5.56 -5.56,5.56  z" class="primitive"/>
    </g>
  </g>
  <g stroke="#808080" fill="#FFFFFF" id="img-284a8e65-79">
    <g transform="translate(26.27,50)">
      <path d="M-5.56,-5.56 L5.56,-5.56 5.56,5.56 -5.56,5.56  z" class="primitive"/>
    </g>
  </g>
  <g stroke="#808080" fill="#FFFFFF" id="img-284a8e65-80">
    <g transform="translate(26.27,61.11)">
      <path d="M-5.56,-5.56 L5.56,-5.56 5.56,5.56 -5.56,5.56  z" class="primitive"/>
    </g>
  </g>
  <g stroke="#808080" fill="#FFFFFF" id="img-284a8e65-81">
    <g transform="translate(26.27,72.22)">
      <path d="M-5.56,-5.56 L5.56,-5.56 5.56,5.56 -5.56,5.56  z" class="primitive"/>
    </g>
  </g>
  <g stroke="#808080" fill="#FFFFFF" id="img-284a8e65-82">
    <g transform="translate(26.27,83.33)">
      <path d="M-5.56,-5.56 L5.56,-5.56 5.56,5.56 -5.56,5.56  z" class="primitive"/>
    </g>
  </g>
  <g stroke="#808080" fill="#FFFFFF" id="img-284a8e65-83">
    <g transform="translate(26.27,94.44)">
      <path d="M-5.56,-5.56 L5.56,-5.56 5.56,5.56 -5.56,5.56  z" class="primitive"/>
    </g>
  </g>
</g>
<g stroke="#000000" stroke-width="0.35" id="img-284a8e65-84">
  <g transform="translate(60.99,26.39)">
    <path fill="none" d="M4.17,1.39 C-1.39,1.39 -1.39,1.39 -1.39,-4.17" class="primitive"/>
  </g>
</g>
<g stroke="#000000" stroke-width="0.35" id="img-284a8e65-85">
  <g transform="translate(69.32,29.17)">
    <path fill="none" d="M1.39,4.17 C1.39,-1.39 1.39,-1.39 -4.17,-1.39" class="primitive"/>
  </g>
</g>
<g stroke="#000000" stroke-width="0.35" id="img-284a8e65-86">
  <g transform="translate(70.71,38.89)">
    <path fill="none" d="M0,5.56 C0,0 0,0 0,-5.56" class="primitive"/>
  </g>
</g>
<g stroke="#000000" stroke-width="0.35" id="img-284a8e65-87">
  <g transform="translate(72.1,48.61)">
    <path fill="none" d="M4.17,1.39 C-1.39,1.39 -1.39,1.39 -1.39,-4.17" class="primitive"/>
  </g>
</g>
<g stroke="#000000" stroke-width="0.35" id="img-284a8e65-88">
  <g transform="translate(81.82,50)">
    <path fill="none" d="M5.56,0 C0,0 0,0 -5.56,0" class="primitive"/>
  </g>
</g>
<g stroke="#000000" stroke-width="0.35" id="img-284a8e65-89">
  <g transform="translate(91.54,51.39)">
    <path fill="none" d="M1.39,4.17 C1.39,-1.39 1.39,-1.39 -4.17,-1.39" class="primitive"/>
  </g>
</g>
<g stroke="#000000" stroke-width="0.35" id="img-284a8e65-90">
  <g transform="translate(92.93,61.11)">
    <path fill="none" d="M0,5.56 C0,0 0,0 0,-5.56" class="primitive"/>
  </g>
</g>
<g stroke="#000000" stroke-width="0.35" id="img-284a8e65-91">
  <g transform="translate(92.93,70.83)">
    <path fill="none" d="M0,1.39 C0,1.39 0,1.39 0,-4.17" class="primitive"/>
  </g>
</g>
<g stroke="#000000" stroke-width="0.35" id="img-284a8e65-92">
  <g transform="translate(60.16,23.89)">
    <path fill="none" d="M-0.56,-1.11 L0.56,1.11 " class="primitive"/>
  </g>
</g>
<g stroke="#000000" stroke-width="0.35" id="img-284a8e65-93">
  <g transform="translate(59.04,23.89)">
    <path fill="none" d="M0.56,-1.11 L-0.56,1.11 " class="primitive"/>
  </g>
</g>
<g stroke="#000000" stroke-width="0.35" id="img-284a8e65-94">
  <g transform="translate(66.82,27.22)">
    <path fill="none" d="M-1.11,0.56 L1.11,-0.56 " class="primitive"/>
  </g>
</g>
<g stroke="#000000" stroke-width="0.35" id="img-284a8e65-95">
  <g transform="translate(66.82,28.33)">
    <path fill="none" d="M-1.11,-0.56 L1.11,0.56 " class="primitive"/>
  </g>
</g>
<g stroke="#000000" stroke-width="0.35" id="img-284a8e65-96">
  <g transform="translate(71.27,35)">
    <path fill="none" d="M-0.56,-1.11 L0.56,1.11 " class="primitive"/>
  </g>
</g>
<g stroke="#000000" stroke-width="0.35" id="img-284a8e65-97">
  <g transform="translate(70.16,35)">
    <path fill="none" d="M0.56,-1.11 L-0.56,1.11 " class="primitive"/>
  </g>
</g>
<g stroke="#000000" stroke-width="0.35" id="img-284a8e65-98">
  <g transform="translate(71.27,46.11)">
    <path fill="none" d="M-0.56,-1.11 L0.56,1.11 " class="primitive"/>
  </g>
</g>
<g stroke="#000000" stroke-width="0.35" id="img-284a8e65-99">
  <g transform="translate(70.16,46.11)">
    <path fill="none" d="M0.56,-1.11 L-0.56,1.11 " class="primitive"/>
  </g>
</g>
<g stroke="#000000" stroke-width="0.35" id="img-284a8e65-100">
  <g transform="translate(77.93,49.44)">
    <path fill="none" d="M-1.11,0.56 L1.11,-0.56 " class="primitive"/>
  </g>
</g>
<g stroke="#000000" stroke-width="0.35" id="img-284a8e65-101">
  <g transform="translate(77.93,50.56)">
    <path fill="none" d="M-1.11,-0.56 L1.11,0.56 " class="primitive"/>
  </g>
</g>
<g stroke="#000000" stroke-width="0.35" id="img-284a8e65-102">
  <g transform="translate(89.04,49.44)">
    <path fill="none" d="M-1.11,0.56 L1.11,-0.56 " class="primitive"/>
  </g>
</g>
<g stroke="#000000" stroke-width="0.35" id="img-284a8e65-103">
  <g transform="translate(89.04,50.56)">
    <path fill="none" d="M-1.11,-0.56 L1.11,0.56 " class="primitive"/>
  </g>
</g>
<g stroke="#000000" stroke-width="0.35" id="img-284a8e65-104">
  <g transform="translate(93.49,57.22)">
    <path fill="none" d="M-0.56,-1.11 L0.56,1.11 " class="primitive"/>
  </g>
</g>
<g stroke="#000000" stroke-width="0.35" id="img-284a8e65-105">
  <g transform="translate(92.38,57.22)">
    <path fill="none" d="M0.56,-1.11 L-0.56,1.11 " class="primitive"/>
  </g>
</g>
<g stroke="#000000" stroke-width="0.35" id="img-284a8e65-106">
  <g transform="translate(93.49,68.33)">
    <path fill="none" d="M-0.56,-1.11 L0.56,1.11 " class="primitive"/>
  </g>
</g>
<g stroke="#000000" stroke-width="0.35" id="img-284a8e65-107">
  <g transform="translate(92.38,68.33)">
    <path fill="none" d="M0.56,-1.11 L-0.56,1.11 " class="primitive"/>
  </g>
</g>
<g stroke="#000000" id="img-284a8e65-108">
  <g transform="translate(81.82,6.67)">
    <g class="primitive">
      <text text-anchor="middle" dy="0.35em">0.5</text>
    </g>
  </g>
</g>
<g stroke="#000000" id="img-284a8e65-109">
  <g transform="translate(59.6,17.78)">
    <g class="primitive">
      <text text-anchor="middle" dy="0.35em">-1.0</text>
    </g>
  </g>
</g>
<g stroke="#000000" id="img-284a8e65-110">
  <g transform="translate(59.6,73.33)">
    <g class="primitive">
      <text text-anchor="middle" dy="0.35em">-0.25</text>
    </g>
  </g>
</g>
<g stroke="#000000" id="img-284a8e65-111">
  <g transform="translate(37.38,17.78)">
    <g class="primitive">
      <text text-anchor="middle" dy="0.35em">1.0</text>
    </g>
  </g>
</g>
<g fill="#0000FF" id="img-284a8e65-112">
  <g transform="translate(92.93,72.22)">
    <circle cx="0" cy="0" r="3.33" class="primitive"/>
  </g>
</g>
</svg>
