<?xml version="1.0" encoding="UTF-8"?>
<svg xmlns="http://www.w3.org/2000/svg"
     xmlns:xlink="http://www.w3.org/1999/xlink"
     version="1.2"
     width="141.42mm" height="100mm" viewBox="0 0 141.42 100"
     stroke="none"
     fill="#000000"
     stroke-width="0.3"
     font-size="3.88"
>
<defs>
  <marker id="arrow" markerWidth="15" markerHeight="7" refX="5" refY="3.5" orient="auto" markerUnits="strokeWidth">
    <path d="M0,0 L15,3.5 L0,7 z" stroke="context-stroke" fill="context-stroke"/>
  </marker>
</defs>
<g stroke="#808080" stroke-width="0.71" id="img-f6403d03-1">
  <g transform="translate(70.71,50)">
    <path d="M-50,-50 L50,-50 50,50 -50,50  z" class="primitive"/>
  </g>
</g>
<g stroke-width="0.35" id="img-f6403d03-2">
  <g stroke="#808080" fill="#FFFFFF" id="img-f6403d03-3">
    <g transform="translate(115.16,5.56)">
      <path d="M-5.56,-5.56 L5.56,-5.56 5.56,5.56 -5.56,5.56  z" class="primitive"/>
    </g>
  </g>
  <g stroke="#808080" fill="#FFFFFF" id="img-f6403d03-4">
    <g transform="translate(115.16,16.67)">
      <path d="M-5.56,-5.56 L5.56,-5.56 5.56,5.56 -5.56,5.56  z" class="primitive"/>
    </g>
  </g>
  <g stroke="#808080" fill="#FFFFFF" id="img-f6403d03-5">
    <g transform="translate(115.16,27.78)">
      <path d="M-5.56,-5.56 L5.56,-5.56 5.56,5.56 -5.56,5.56  z" class="primitive"/>
    </g>
  </g>
  <g stroke="#808080" fill="#FFFFFF" id="img-f6403d03-6">
    <g transform="translate(115.16,38.89)">
      <path d="M-5.56,-5.56 L5.56,-5.56 5.56,5.56 -5.56,5.56  z" class="primitive"/>
    </g>
  </g>
  <g stroke="#808080" fill="#FFFFFF" id="img-f6403d03-7">
    <g transform="translate(115.16,50)">
      <path d="M-5.56,-5.56 L5.56,-5.56 5.56,5.56 -5.56,5.56  z" class="primitive"/>
    </g>
  </g>
  <g stroke="#808080" fill="#FFFFFF" id="img-f6403d03-8">
    <g transform="translate(115.16,61.11)">
      <path d="M-5.56,-5.56 L5.56,-5.56 5.56,5.56 -5.56,5.56  z" class="primitive"/>
    </g>
  </g>
  <g stroke="#808080" fill="#FFFFFF" id="img-f6403d03-9">
    <g transform="translate(115.16,72.22)">
      <path d="M-5.56,-5.56 L5.56,-5.56 5.56,5.56 -5.56,5.56  z" class="primitive"/>
    </g>
  </g>
  <g stroke="#808080" fill="#FFFFFF" id="img-f6403d03-10">
    <g transform="translate(115.16,83.33)">
      <path d="M-5.56,-5.56 L5.56,-5.56 5.56,5.56 -5.56,5.56  z" class="primitive"/>
    </g>
  </g>
  <g stroke="#808080" fill="#FFFFFF" id="img-f6403d03-11">
    <g transform="translate(115.16,94.44)">
      <path d="M-5.56,-5.56 L5.56,-5.56 5.56,5.56 -5.56,5.56  z" class="primitive"/>
    </g>
  </g>
  <g stroke="#808080" fill="#FFFFFF" id="img-f6403d03-12">
    <g transform="translate(104.04,5.56)">
      <path d="M-5.56,-5.56 L5.56,-5.56 5.56,5.56 -5.56,5.56  z" class="primitive"/>
    </g>
  </g>
  <g stroke="#808080" fill="#FFFFFF" id="img-f6403d03-13">
    <g transform="translate(104.04,16.67)">
      <path d="M-5.56,-5.56 L5.56,-5.56 5.56,5.56 -5.56,5.56  z" class="primitive"/>
    </g>
  </g>
  <g stroke="#808080" fill="#FFFFFF" id="img-f6403d03-14">
    <g transform="translate(104.04,27.78)">
      <path d="M-5.56,-5.56 L5.56,-5.56 5.56,5.56 -5.56,5.56  z" class="primitive"/>
    </g>
  </g>
  <g stroke="#808080" fill="#FFFFFF" id="img-f6403d03-15">
    <g transform="translate(104.04,38.89)">
      <path d="M-5.56,-5.56 L5.56,-5.56 5.56,5.56 -5.56,5.56  z" class="primitive"/>
    </g>
  </g>
  <g stroke="#808080" fill="#FFFFFF" id="img-f6403d03-16">
    <g transform="translate(104.04,50)">
      <path d="M-5.56,-5.56 L5.56,-5.56 5.56,5.56 -5.56,5.56  z" class="primitive"/>
    </g>
  </g>
  <g stroke="#808080" fill="#FFFFFF" id="img-f6403d03-17">
    <g transform="translate(104.04,61.11)">
      <path d="M-5.56,-5.56 L5.56,-5.56 5.56,5.56 -5.56,5.56  z" class="primitive"/>
    </g>
  </g>
  <g stroke="#808080" fill="#FFFFFF" id="img-f6403d03-18">
    <g transform="translate(104.04,72.22)">
      <path d="M-5.56,-5.56 L5.56,-5.56 5.56,5.56 -5.56,5.56  z" class="primitive"/>
    </g>
  </g>
  <g stroke="#808080" fill="#FFFFFF" id="img-f6403d03-19">
    <g transform="translate(104.04,83.33)">
      <path d="M-5.56,-5.56 L5.56,-5.56 5.56,5.56 -5.56,5.56  z" class="primitive"/>
    </g>
  </g>
  <g stroke="#808080" fill="#FFFFFF" id="img-f6403d03-20">
    <g transform="translate(104.04,94.44)">
      <path d="M-5.56,-5.56 L5.56,-5.56 5.56,5.56 -5.56,5.56  z" class="primitive"/>
    </g>
  </g>
  <g stroke="#808080" fill="#FFFFFF" id="img-f6403d03-21">
    <g transform="translate(92.93,5.56)">
      <path d="M-5.56,-5.56 L5.56,-5.56 5.56,5.56 -5.56,5.56  z" class="primitive"/>
    </g>
  </g>
  <g stroke="#808080" fill="#FFFFFF" id="img-f6403d03-22">
    <g transform="translate(92.93,16.67)">
      <path d="M-5.56,-5.56 L5.56,-5.56 5.56,5.56 -5.56,5.56  z" class="primitive"/>
    </g>
  </g>
  <g stroke="#808080" fill="#FFFFFF" id="img-f6403d03-23">
    <g transform="translate(92.93,27.78)">
      <path d="M-5.56,-5.56 L5.56,-5.56 5.56,5.56 -5.56,5.56  z" class="primitive"/>
    </g>
  </g>
  <g stroke="#808080" fill="#FFFFFF" id="img-f6403d03-24">
    <g transform="translate(92.93,38.89)">
      <path d="M-5.56,-5.56 L5.56,-5.56 5.56,5.56 -5.56,5.56  z" class="primitive"/>
    </g>
  </g>
  <g stroke="#808080" fill="#FFFFFF" id="img-f6403d03-25">
    <g transform="translate(92.93,50)">
      <path d="M-5.56,-5.56 L5.56,-5.56 5.56,5.56 -5.56,5.56  z" class="primitive"/>
    </g>
  </g>
  <g stroke="#808080" fill="#FFFFFF" id="img-f6403d03-26">
    <g transform="translate(92.93,61.11)">
      <path d="M-5.56,-5.56 L5.56,-5.56 5.56,5.56 -5.56,5.56  z" class="primitive"/>
    </g>
  </g>
  <g stroke="#808080" fill="#FFFFFF" id="img-f6403d03-27">
    <g transform="translate(92.93,72.22)">
      <path d="M-5.56,-5.56 L5.56,-5.56 5.56,5.56 -5.56,5.56  z" class="primitive"/>
    </g>
  </g>
  <g stroke="#808080" fill="#FFFFFF" id="img-f6403d03-28">
    <g transform="translate(92.93,83.33)">
      <path d="M-5.56,-5.56 L5.56,-5.56 5.56,5.56 -5.56,5.56  z" class="primitive"/>
    </g>
  </g>
  <g stroke="#808080" fill="#FFFFFF" id="img-f6403d03-29">
    <g transform="translate(92.93,94.44)">
      <path d="M-5.56,-5.56 L5.56,-5.56 5.56,5.56 -5.56,5.56  z" class="primitive"/>
    </g>
  </g>
  <g stroke="#808080" fill="#008015" id="img-f6403d03-30">
    <g transform="translate(81.82,5.56)">
      <path d="M-5.56,-5.56 L5.56,-5.56 5.56,5.56 -5.56,5.56  z" class="primitive"/>
    </g>
  </g>
  <g stroke="#808080" fill="#FFFFFF" id="img-f6403d03-31">
    <g transform="translate(81.82,16.67)">
      <path d="M-5.56,-5.56 L5.56,-5.56 5.56,5.56 -5.56,5.56  z" class="primitive"/>
    </g>
  </g>
  <g stroke="#808080" fill="#FFFFFF" id="img-f6403d03-32">
    <g transform="translate(81.82,27.78)">
      <path d="M-5.56,-5.56 L5.56,-5.56 5.56,5.56 -5.56,5.56  z" class="primitive"/>
    </g>
  </g>
  <g stroke="#808080" fill="#FFFFFF" id="img-f6403d03-33">
    <g transform="translate(81.82,38.89)">
      <path d="M-5.56,-5.56 L5.56,-5.56 5.56,5.56 -5.56,5.56  z" class="primitive"/>
    </g>
  </g>
  <g stroke="#808080" fill="#FFFFFF" id="img-f6403d03-34">
    <g transform="translate(81.82,50)">
      <path d="M-5.56,-5.56 L5.56,-5.56 5.56,5.56 -5.56,5.56  z" class="primitive"/>
    </g>
  </g>
  <g stroke="#808080" fill="#FFFFFF" id="img-f6403d03-35">
    <g transform="translate(81.82,61.11)">
      <path d="M-5.56,-5.56 L5.56,-5.56 5.56,5.56 -5.56,5.56  z" class="primitive"/>
    </g>
  </g>
  <g stroke="#808080" fill="#FFFFFF" id="img-f6403d03-36">
    <g transform="translate(81.82,72.22)">
      <path d="M-5.56,-5.56 L5.56,-5.56 5.56,5.56 -5.56,5.56  z" class="primitive"/>
    </g>
  </g>
  <g stroke="#808080" fill="#FFFFFF" id="img-f6403d03-37">
    <g transform="translate(81.82,83.33)">
      <path d="M-5.56,-5.56 L5.56,-5.56 5.56,5.56 -5.56,5.56  z" class="primitive"/>
    </g>
  </g>
  <g stroke="#808080" fill="#FFFFFF" id="img-f6403d03-38">
    <g transform="translate(81.82,94.44)">
      <path d="M-5.56,-5.56 L5.56,-5.56 5.56,5.56 -5.56,5.56  z" class="primitive"/>
    </g>
  </g>
  <g stroke="#808080" fill="#FFFFFF" id="img-f6403d03-39">
    <g transform="translate(70.71,5.56)">
      <path d="M-5.56,-5.56 L5.56,-5.56 5.56,5.56 -5.56,5.56  z" class="primitive"/>
    </g>
  </g>
  <g stroke="#808080" fill="#FFFFFF" id="img-f6403d03-40">
    <g transform="translate(70.71,16.67)">
      <path d="M-5.56,-5.56 L5.56,-5.56 5.56,5.56 -5.56,5.56  z" class="primitive"/>
    </g>
  </g>
  <g stroke="#808080" fill="#FFFFFF" id="img-f6403d03-41">
    <g transform="translate(70.71,27.78)">
      <path d="M-5.56,-5.56 L5.56,-5.56 5.56,5.56 -5.56,5.56  z" class="primitive"/>
    </g>
  </g>
  <g stroke="#808080" fill="#FFFFFF" id="img-f6403d03-42">
    <g transform="translate(70.71,38.89)">
      <path d="M-5.56,-5.56 L5.56,-5.56 5.56,5.56 -5.56,5.56  z" class="primitive"/>
    </g>
  </g>
  <g stroke="#808080" fill="#FFFFFF" id="img-f6403d03-43">
    <g transform="translate(70.71,50)">
      <path d="M-5.56,-5.56 L5.56,-5.56 5.56,5.56 -5.56,5.56  z" class="primitive"/>
    </g>
  </g>
  <g stroke="#808080" fill="#FFFFFF" id="img-f6403d03-44">
    <g transform="translate(70.71,61.11)">
      <path d="M-5.56,-5.56 L5.56,-5.56 5.56,5.56 -5.56,5.56  z" class="primitive"/>
    </g>
  </g>
  <g stroke="#808080" fill="#FFFFFF" id="img-f6403d03-45">
    <g transform="translate(70.71,72.22)">
      <path d="M-5.56,-5.56 L5.56,-5.56 5.56,5.56 -5.56,5.56  z" class="primitive"/>
    </g>
  </g>
  <g stroke="#808080" fill="#FFFFFF" id="img-f6403d03-46">
    <g transform="translate(70.71,83.33)">
      <path d="M-5.56,-5.56 L5.56,-5.56 5.56,5.56 -5.56,5.56  z" class="primitive"/>
    </g>
  </g>
  <g stroke="#808080" fill="#FFFFFF" id="img-f6403d03-47">
    <g transform="translate(70.71,94.44)">
      <path d="M-5.56,-5.56 L5.56,-5.56 5.56,5.56 -5.56,5.56  z" class="primitive"/>
    </g>
  </g>
  <g stroke="#808080" fill="#FFFFFF" id="img-f6403d03-48">
    <g transform="translate(59.6,5.56)">
      <path d="M-5.56,-5.56 L5.56,-5.56 5.56,5.56 -5.56,5.56  z" class="primitive"/>
    </g>
  </g>
  <g stroke="#808080" fill="#FF0000" id="img-f6403d03-49">
    <g transform="translate(59.6,16.67)">
      <path d="M-5.56,-5.56 L5.56,-5.56 5.56,5.56 -5.56,5.56  z" class="primitive"/>
    </g>
  </g>
  <g stroke="#808080" fill="#FFFFFF" id="img-f6403d03-50">
    <g transform="translate(59.6,27.78)">
      <path d="M-5.56,-5.56 L5.56,-5.56 5.56,5.56 -5.56,5.56  z" class="primitive"/>
    </g>
  </g>
  <g stroke="#808080" fill="#FFFFFF" id="img-f6403d03-51">
    <g transform="translate(59.6,38.89)">
      <path d="M-5.56,-5.56 L5.56,-5.56 5.56,5.56 -5.56,5.56  z" class="primitive"/>
    </g>
  </g>
  <g stroke="#808080" fill="#FFFFFF" id="img-f6403d03-52">
    <g transform="translate(59.6,50)">
      <path d="M-5.56,-5.56 L5.56,-5.56 5.56,5.56 -5.56,5.56  z" class="primitive"/>
    </g>
  </g>
  <g stroke="#808080" fill="#FFFFFF" id="img-f6403d03-53">
    <g transform="translate(59.6,61.11)">
      <path d="M-5.56,-5.56 L5.56,-5.56 5.56,5.56 -5.56,5.56  z" class="primitive"/>
    </g>
  </g>
  <g stroke="#808080" fill="#FF0000" id="img-f6403d03-54">
    <g transform="translate(59.6,72.22)">
      <path d="M-5.56,-5.56 L5.56,-5.56 5.56,5.56 -5.56,5.56  z" class="primitive"/>
    </g>
  </g>
  <g stroke="#808080" fill="#FFFFFF" id="img-f6403d03-55">
    <g transform="translate(59.6,83.33)">
      <path d="M-5.56,-5.56 L5.56,-5.56 5.56,5.56 -5.56,5.56  z" class="primitive"/>
    </g>
  </g>
  <g stroke="#808080" fill="#FFFFFF" id="img-f6403d03-56">
    <g transform="translate(59.6,94.44)">
      <path d="M-5.56,-5.56 L5.56,-5.56 5.56,5.56 -5.56,5.56  z" class="primitive"/>
    </g>
  </g>
  <g stroke="#808080" fill="#FFFFFF" id="img-f6403d03-57">
    <g transform="translate(48.49,5.56)">
      <path d="M-5.56,-5.56 L5.56,-5.56 5.56,5.56 -5.56,5.56  z" class="primitive"/>
    </g>
  </g>
  <g stroke="#808080" fill="#FFFFFF" id="img-f6403d03-58">
    <g transform="translate(48.49,16.67)">
      <path d="M-5.56,-5.56 L5.56,-5.56 5.56,5.56 -5.56,5.56  z" class="primitive"/>
    </g>
  </g>
  <g stroke="#808080" fill="#FFFFFF" id="img-f6403d03-59">
    <g transform="translate(48.49,27.78)">
      <path d="M-5.56,-5.56 L5.56,-5.56 5.56,5.56 -5.56,5.56  z" class="primitive"/>
    </g>
  </g>
  <g stroke="#808080" fill="#FFFFFF" id="img-f6403d03-60">
    <g transform="translate(48.49,38.89)">
      <path d="M-5.56,-5.56 L5.56,-5.56 5.56,5.56 -5.56,5.56  z" class="primitive"/>
    </g>
  </g>
  <g stroke="#808080" fill="#FFFFFF" id="img-f6403d03-61">
    <g transform="translate(48.49,50)">
      <path d="M-5.56,-5.56 L5.56,-5.56 5.56,5.56 -5.56,5.56  z" class="primitive"/>
    </g>
  </g>
  <g stroke="#808080" fill="#FFFFFF" id="img-f6403d03-62">
    <g transform="translate(48.49,61.11)">
      <path d="M-5.56,-5.56 L5.56,-5.56 5.56,5.56 -5.56,5.56  z" class="primitive"/>
    </g>
  </g>
  <g stroke="#808080" fill="#FFFFFF" id="img-f6403d03-63">
    <g transform="translate(48.49,72.22)">
      <path d="M-5.56,-5.56 L5.56,-5.56 5.56,5.56 -5.56,5.56  z" class="primitive"/>
    </g>
  </g>
  <g stroke="#808080" fill="#FFFFFF" id="img-f6403d03-64">
    <g transform="translate(48.49,83.33)">
      <path d="M-5.56,-5.56 L5.56,-5.56 5.56,5.56 -5.56,5.56  z" class="primitive"/>
    </g>
  </g>
  <g stroke="#808080" fill="#FFFFFF" id="img-f6403d03-65">
    <g transform="translate(48.49,94.44)">
      <path d="M-5.56,-5.56 L5.56,-5.56 5.56,5.56 -5.56,5.56  z" class="primitive"/>
    </g>
  </g>
  <g stroke="#808080" fill="#FFFFFF" id="img-f6403d03-66">
    <g transform="translate(37.38,5.56)">
      <path d="M-5.56,-5.56 L5.56,-5.56 5.56,5.56 -5.56,5.56  z" class="primitive"/>
    </g>
  </g>
  <g stroke="#808080" fill="#008015" id="img-f6403d03-67">
    <g transform="translate(37.38,16.67)">
      <path d="M-5.56,-5.56 L5.56,-5.56 5.56,5.56 -5.56,5.56  z" class="primitive"/>
    </g>
  </g>
  <g stroke="#808080" fill="#FFFFFF" id="img-f6403d03-68">
    <g transform="translate(37.38,27.78)">
      <path d="M-5.56,-5.56 L5.56,-5.56 5.56,5.56 -5.56,5.56  z" class="primitive"/>
    </g>
  </g>
  <g stroke="#808080" fill="#FFFFFF" id="img-f6403d03-69">
    <g transform="translate(37.38,38.89)">
      <path d="M-5.56,-5.56 L5.56,-5.56 5.56,5.56 -5.56,5.56  z" class="primitive"/>
    </g>
  </g>
  <g stroke="#808080" fill="#FFFFFF" id="img-f6403d03-70">
    <g transform="translate(37.38,50)">
      <path d="M-5.56,-5.56 L5.56,-5.56 5.56,5.56 -5.56,5.56  z" class="primitive"/>
    </g>
  </g>
  <g stroke="#808080" fill="#FFFFFF" id="img-f6403d03-71">
    <g transform="translate(37.38,61.11)">
      <path d="M-5.56,-5.56 L5.56,-5.56 5.56,5.56 -5.56,5.56  z" class="primitive"/>
    </g>
  </g>
  <g stroke="#808080" fill="#FFFFFF" id="img-f6403d03-72">
    <g transform="translate(37.38,72.22)">
      <path d="M-5.56,-5.56 L5.56,-5.56 5.56,5.56 -5.56,5.56  z" class="primitive"/>
    </g>
  </g>
  <g stroke="#808080" fill="#FFFFFF" id="img-f6403d03-73">
    <g transform="translate(37.38,83.33)">
      <path d="M-5.56,-5.56 L5.56,-5.56 5.56,5.56 -5.56,5.56  z" class="primitive"/>
    </g>
  </g>
  <g stroke="#808080" fill="#FFFFFF" id="img-f6403d03-74">
    <g transform="translate(37.38,94.44)">
      <path d="M-5.56,-5.56 L5.56,-5.56 5.56,5.56 -5.56,5.56  z" class="primitive"/>
    </g>
  </g>
  <g stroke="#808080" fill="#FFFFFF" id="img-f6403d03-75">
    <g transform="translate(26.27,5.56)">
      <path d="M-5.56,-5.56 L5.56,-5.56 5.56,5.56 -5.56,5.56  z" class="primitive"/>
    </g>
  </g>
  <g stroke="#808080" fill="#FFFFFF" id="img-f6403d03-76">
    <g transform="translate(26.27,16.67)">
      <path d="M-5.56,-5.56 L5.56,-5.56 5.56,5.56 -5.56,5.56  z" class="primitive"/>
    </g>
  </g>
  <g stroke="#808080" fill="#FFFFFF" id="img-f6403d03-77">
    <g transform="translate(26.27,27.78)">
      <path d="M-5.56,-5.56 L5.56,-5.56 5.56,5.56 -5.56,5.56  z" class="primitive"/>
    </g>
  </g>
  <g stroke="#808080" fill="#FFFFFF" id="img-f6403d03-78">
    <g transform="translate(26.27,38.89)">
      <path d="M-5.56,-5.56 L5.56,-5.56 5.56,5.56 -5.56,5.56  z" class="primitive"/>
    </g>
  </g>
  <g stroke="#808080" fill="#FFFFFF" id="img-f6403d03-79">
    <g transform="translate(26.27,50)">
      <path d="M-5.56,-5.56 L5.56,-5.56 5.56,5.56 -5.56,5.56  z" class="primitive"/>
    </g>
  </g>
  <g stroke="#808080" fill="#FFFFFF" id="img-f6403d03-80">
    <g transform="translate(26.27,61.11)">
      <path d="M-5.56,-5.56 L5.56,-5.56 5.56,5.56 -5.56,5.56  z" class="primitive"/>
    </g>
  </g>
  <g stroke="#808080" fill="#FFFFFF" id="img-f6403d03-81">
    <g transform="translate(26.27,72.22)">
      <path d="M-5.56,-5.56 L5.56,-5.56 5.56,5.56 -5.56,5.56  z" class="primitive"/>
    </g>
  </g>
  <g stroke="#808080" fill="#FFFFFF" id="img-f6403d03-82">
    <g transform="translate(26.27,83.33)">
      <path d="M-5.56,-5.56 L5.56,-5.56 5.56,5.56 -5.56,5.56  z" class="primitive"/>
    </g>
  </g>
  <g stroke="#808080" fill="#FFFFFF" id="img-f6403d03-83">
    <g transform="translate(26.27,94.44)">
      <path d="M-5.56,-5.56 L5.56,-5.56 5.56,5.56 -5.56,5.56  z" class="primitive"/>
    </g>
  </g>
</g>
<g stroke="#000000" id="img-f6403d03-84">
  <g transform="translate(115.16,6.67)">
    <g class="primitive">
      <text text-anchor="middle" dy="0.35em">←</text>
    </g>
  </g>
</g>
<g stroke="#000000" id="img-f6403d03-85">
  <g transform="translate(115.16,17.78)">
    <g class="primitive">
      <text text-anchor="middle" dy="0.35em">←</text>
    </g>
  </g>
</g>
<g stroke="#000000" id="img-f6403d03-86">
  <g transform="translate(115.16,28.89)">
    <g class="primitive">
      <text text-anchor="middle" dy="0.35em">←</text>
    </g>
  </g>
</g>
<g stroke="#000000" id="img-f6403d03-87">
  <g transform="translate(115.16,40)">
    <g class="primitive">
      <text text-anchor="middle" dy="0.35em">←</text>
    </g>
  </g>
</g>
<g stroke="#000000" id="img-f6403d03-88">
  <g transform="translate(115.16,51.11)">
    <g class="primitive">
      <text text-anchor="middle" dy="0.35em">←</text>
    </g>
  </g>
</g>
<g stroke="#000000" id="img-f6403d03-89">
  <g transform="translate(115.16,62.22)">
    <g class="primitive">
      <text text-anchor="middle" dy="0.35em">↑</text>
    </g>
  </g>
</g>
<g stroke="#000000" id="img-f6403d03-90">
  <g transform="translate(115.16,73.33)">
    <g class="primitive">
      <text text-anchor="middle" dy="0.35em">↑</text>
    </g>
  </g>
</g>
<g stroke="#000000" id="img-f6403d03-91">
  <g transform="translate(115.16,84.44)">
    <g class="primitive">
      <text text-anchor="middle" dy="0.35em">←</text>
    </g>
  </g>
</g>
<g stroke="#000000" id="img-f6403d03-92">
  <g transform="translate(115.16,95.56)">
    <g class="primitive">
      <text text-anchor="middle" dy="0.35em">←</text>
    </g>
  </g>
</g>
<g stroke="#000000" id="img-f6403d03-93">
  <g transform="translate(104.04,6.67)">
    <g class="primitive">
      <text text-anchor="middle" dy="0.35em">←</text>
    </g>
  </g>
</g>
<g stroke="#000000" id="img-f6403d03-94">
  <g transform="translate(104.04,17.78)">
    <g class="primitive">
      <text text-anchor="middle" dy="0.35em">←</text>
    </g>
  </g>
</g>
<g stroke="#000000" id="img-f6403d03-95">
  <g transform="translate(104.04,28.89)">
    <g class="primitive">
      <text text-anchor="middle" dy="0.35em">←</text>
    </g>
  </g>
</g>
<g stroke="#000000" id="img-f6403d03-96">
  <g transform="translate(104.04,40)">
    <g class="primitive">
      <text text-anchor="middle" dy="0.35em">←</text>
    </g>
  </g>
</g>
<g stroke="#000000" id="img-f6403d03-97">
  <g transform="translate(104.04,51.11)">
    <g class="primitive">
      <text text-anchor="middle" dy="0.35em">←</text>
    </g>
  </g>
</g>
<g stroke="#000000" id="img-f6403d03-98">
  <g transform="translate(104.04,62.22)">
    <g class="primitive">
      <text text-anchor="middle" dy="0.35em">↑</text>
    </g>
  </g>
</g>
<g stroke="#000000" id="img-f6403d03-99">
  <g transform="translate(104.04,73.33)">
    <g class="primitive">
      <text text-anchor="middle" dy="0.35em">←</text>
    </g>
  </g>
</g>
<g stroke="#000000" id="img-f6403d03-100">
  <g transform="translate(104.04,84.44)">
    <g class="primitive">
      <text text-anchor="middle" dy="0.35em">←</text>
    </g>
  </g>
</g>
<g stroke="#000000" id="img-f6403d03-101">
  <g transform="translate(104.04,95.56)">
    <g class="primitive">
      <text text-anchor="middle" dy="0.35em">↑</text>
    </g>
  </g>
</g>
<g stroke="#000000" id="img-f6403d03-102">
  <g transform="translate(92.93,6.67)">
    <g class="primitive">
      <text text-anchor="middle" dy="0.35em">←</text>
    </g>
  </g>
</g>
<g stroke="#000000" id="img-f6403d03-103">
  <g transform="translate(92.93,17.78)">
    <g class="primitive">
      <text text-anchor="middle" dy="0.35em">←</text>
    </g>
  </g>
</g>
<g stroke="#000000" id="img-f6403d03-104">
  <g transform="translate(92.93,28.89)">
    <g class="primitive">
      <text text-anchor="middle" dy="0.35em">←</text>
    </g>
  </g>
</g>
<g stroke="#000000" id="img-f6403d03-105">
  <g transform="translate(92.93,40)">
    <g class="primitive">
      <text text-anchor="middle" dy="0.35em">←</text>
    </g>
  </g>
</g>
<g stroke="#000000" id="img-f6403d03-106">
  <g transform="translate(92.93,51.11)">
    <g class="primitive">
      <text text-anchor="middle" dy="0.35em">←</text>
    </g>
  </g>
</g>
<g stroke="#000000" id="img-f6403d03-107">
  <g transform="translate(92.93,62.22)">
    <g class="primitive">
      <text text-anchor="middle" dy="0.35em">↑</text>
    </g>
  </g>
</g>
<g stroke="#000000" id="img-f6403d03-108">
  <g transform="translate(92.93,73.33)">
    <g class="primitive">
      <text text-anchor="middle" dy="0.35em">↑</text>
    </g>
  </g>
</g>
<g stroke="#000000" id="img-f6403d03-109">
  <g transform="translate(92.93,84.44)">
    <g class="primitive">
      <text text-anchor="middle" dy="0.35em">↑</text>
    </g>
  </g>
</g>
<g stroke="#000000" id="img-f6403d03-110">
  <g transform="translate(92.93,95.56)">
    <g class="primitive">
      <text text-anchor="middle" dy="0.35em">↑</text>
    </g>
  </g>
</g>
<g stroke="#000000" id="img-f6403d03-111">
  <g transform="translate(81.82,6.67)">
    <g class="primitive">
      <text text-anchor="middle" dy="0.35em">↑</text>
    </g>
  </g>
</g>
<g stroke="#000000" id="img-f6403d03-112">
  <g transform="translate(81.82,17.78)">
    <g class="primitive">
      <text text-anchor="middle" dy="0.35em">↑</text>
    </g>
  </g>
</g>
<g stroke="#000000" id="img-f6403d03-113">
  <g transform="translate(81.82,28.89)">
    <g class="primitive">
      <text text-anchor="middle" dy="0.35em">←</text>
    </g>
  </g>
</g>
<g stroke="#000000" id="img-f6403d03-114">
  <g transform="translate(81.82,40)">
    <g class="primitive">
      <text text-anchor="middle" dy="0.35em">←</text>
    </g>
  </g>
</g>
<g stroke="#000000" id="img-f6403d03-115">
  <g transform="translate(81.82,51.11)">
    <g class="primitive">
      <text text-anchor="middle" dy="0.35em">←</text>
    </g>
  </g>
</g>
<g stroke="#000000" id="img-f6403d03-116">
  <g transform="translate(81.82,62.22)">
    <g class="primitive">
      <text text-anchor="middle" dy="0.35em">↑</text>
    </g>
  </g>
</g>
<g stroke="#000000" id="img-f6403d03-117">
  <g transform="translate(81.82,73.33)">
    <g class="primitive">
      <text text-anchor="middle" dy="0.35em">↑</text>
    </g>
  </g>
</g>
<g stroke="#000000" id="img-f6403d03-118">
  <g transform="translate(81.82,84.44)">
    <g class="primitive">
      <text text-anchor="middle" dy="0.35em">↑</text>
    </g>
  </g>
</g>
<g stroke="#000000" id="img-f6403d03-119">
  <g transform="translate(81.82,95.56)">
    <g class="primitive">
      <text text-anchor="middle" dy="0.35em">↑</text>
    </g>
  </g>
</g>
<g stroke="#000000" id="img-f6403d03-120">
  <g transform="translate(70.71,6.67)">
    <g class="primitive">
      <text text-anchor="middle" dy="0.35em">←</text>
    </g>
  </g>
</g>
<g stroke="#000000" id="img-f6403d03-121">
  <g transform="translate(70.71,17.78)">
    <g class="primitive">
      <text text-anchor="middle" dy="0.35em">↓</text>
    </g>
  </g>
</g>
<g stroke="#000000" id="img-f6403d03-122">
  <g transform="translate(70.71,28.89)">
    <g class="primitive">
      <text text-anchor="middle" dy="0.35em">←</text>
    </g>
  </g>
</g>
<g stroke="#000000" id="img-f6403d03-123">
  <g transform="translate(70.71,40)">
    <g class="primitive">
      <text text-anchor="middle" dy="0.35em">←</text>
    </g>
  </g>
</g>
<g stroke="#000000" id="img-f6403d03-124">
  <g transform="translate(70.71,51.11)">
    <g class="primitive">
      <text text-anchor="middle" dy="0.35em">←</text>
    </g>
  </g>
</g>
<g stroke="#000000" id="img-f6403d03-125">
  <g transform="translate(70.71,62.22)">
    <g class="primitive">
      <text text-anchor="middle" dy="0.35em">↑</text>
    </g>
  </g>
</g>
<g stroke="#000000" id="img-f6403d03-126">
  <g transform="translate(70.71,73.33)">
    <g class="primitive">
      <text text-anchor="middle" dy="0.35em">↑</text>
    </g>
  </g>
</g>
<g stroke="#000000" id="img-f6403d03-127">
  <g transform="translate(70.71,84.44)">
    <g class="primitive">
      <text text-anchor="middle" dy="0.35em">←</text>
    </g>
  </g>
</g>
<g stroke="#000000" id="img-f6403d03-128">
  <g transform="translate(70.71,95.56)">
    <g class="primitive">
      <text text-anchor="middle" dy="0.35em">←</text>
    </g>
  </g>
</g>
<g stroke="#000000" id="img-f6403d03-129">
  <g transform="translate(59.6,6.67)">
    <g class="primitive">
      <text text-anchor="middle" dy="0.35em">←</text>
    </g>
  </g>
</g>
<g stroke="#000000" id="img-f6403d03-130">
  <g transform="translate(59.6,17.78)">
    <g class="primitive">
      <text text-anchor="middle" dy="0.35em">↑</text>
    </g>
  </g>
</g>
<g stroke="#000000" id="img-f6403d03-131">
  <g transform="translate(59.6,28.89)">
    <g class="primitive">
      <text text-anchor="middle" dy="0.35em">←</text>
    </g>
  </g>
</g>
<g stroke="#000000" id="img-f6403d03-132">
  <g transform="translate(59.6,40)">
    <g class="primitive">
      <text text-anchor="middle" dy="0.35em">←</text>
    </g>
  </g>
</g>
<g stroke="#000000" id="img-f6403d03-133">
  <g transform="translate(59.6,51.11)">
    <g class="primitive">
      <text text-anchor="middle" dy="0.35em">←</text>
    </g>
  </g>
</g>
<g stroke="#000000" id="img-f6403d03-134">
  <g transform="translate(59.6,62.22)">
    <g class="primitive">
      <text text-anchor="middle" dy="0.35em">↑</text>
    </g>
  </g>
</g>
<g stroke="#000000" id="img-f6403d03-135">
  <g transform="translate(59.6,73.33)">
    <g class="primitive">
      <text text-anchor="middle" dy="0.35em">↑</text>
    </g>
  </g>
</g>
<g stroke="#000000" id="img-f6403d03-136">
  <g transform="translate(59.6,84.44)">
    <g class="primitive">
      <text text-anchor="middle" dy="0.35em">←</text>
    </g>
  </g>
</g>
<g stroke="#000000" id="img-f6403d03-137">
  <g transform="translate(59.6,95.56)">
    <g class="primitive">
      <text text-anchor="middle" dy="0.35em">←</text>
    </g>
  </g>
</g>
<g stroke="#000000" id="img-f6403d03-138">
  <g transform="translate(48.49,6.67)">
    <g class="primitive">
      <text text-anchor="middle" dy="0.35em">←</text>
    </g>
  </g>
</g>
<g stroke="#000000" id="img-f6403d03-139">
  <g transform="translate(48.49,17.78)">
    <g class="primitive">
      <text text-anchor="middle" dy="0.35em">←</text>
    </g>
  </g>
</g>
<g stroke="#000000" id="img-f6403d03-140">
  <g transform="translate(48.49,28.89)">
    <g class="primitive">
      <text text-anchor="middle" dy="0.35em">←</text>
    </g>
  </g>
</g>
<g stroke="#000000" id="img-f6403d03-141">
  <g transform="translate(48.49,40)">
    <g class="primitive">
      <text text-anchor="middle" dy="0.35em">←</text>
    </g>
  </g>
</g>
<g stroke="#000000" id="img-f6403d03-142">
  <g transform="translate(48.49,51.11)">
    <g class="primitive">
      <text text-anchor="middle" dy="0.35em">↑</text>
    </g>
  </g>
</g>
<g stroke="#000000" id="img-f6403d03-143">
  <g transform="translate(48.49,62.22)">
    <g class="primitive">
      <text text-anchor="middle" dy="0.35em">↑</text>
    </g>
  </g>
</g>
<g stroke="#000000" id="img-f6403d03-144">
  <g transform="translate(48.49,73.33)">
    <g class="primitive">
      <text text-anchor="middle" dy="0.35em">↑</text>
    </g>
  </g>
</g>
<g stroke="#000000" id="img-f6403d03-145">
  <g transform="translate(48.49,84.44)">
    <g class="primitive">
      <text text-anchor="middle" dy="0.35em">←</text>
    </g>
  </g>
</g>
<g stroke="#000000" id="img-f6403d03-146">
  <g transform="translate(48.49,95.56)">
    <g class="primitive">
      <text text-anchor="middle" dy="0.35em">↑</text>
    </g>
  </g>
</g>
<g stroke="#000000" id="img-f6403d03-147">
  <g transform="translate(37.38,6.67)">
    <g class="primitive">
      <text text-anchor="middle" dy="0.35em">↓</text>
    </g>
  </g>
</g>
<g stroke="#000000" id="img-f6403d03-148">
  <g transform="translate(37.38,17.78)">
    <g class="primitive">
      <text text-anchor="middle" dy="0.35em">↑</text>
    </g>
  </g>
</g>
<g stroke="#000000" id="img-f6403d03-149">
  <g transform="translate(37.38,28.89)">
    <g class="primitive">
      <text text-anchor="middle" dy="0.35em">↑</text>
    </g>
  </g>
</g>
<g stroke="#000000" id="img-f6403d03-150">
  <g transform="translate(37.38,40)">
    <g class="primitive">
      <text text-anchor="middle" dy="0.35em">↑</text>
    </g>
  </g>
</g>
<g stroke="#000000" id="img-f6403d03-151">
  <g transform="translate(37.38,51.11)">
    <g class="primitive">
      <text text-anchor="middle" dy="0.35em">↑</text>
    </g>
  </g>
</g>
<g stroke="#000000" id="img-f6403d03-152">
  <g transform="translate(37.38,62.22)">
    <g class="primitive">
      <text text-anchor="middle" dy="0.35em">↑</text>
    </g>
  </g>
</g>
<g stroke="#000000" id="img-f6403d03-153">
  <g transform="translate(37.38,73.33)">
    <g class="primitive">
      <text text-anchor="middle" dy="0.35em">↑</text>
    </g>
  </g>
</g>
<g stroke="#000000" id="img-f6403d03-154">
  <g transform="translate(37.38,84.44)">
    <g class="primitive">
      <text text-anchor="middle" dy="0.35em">↑</text>
    </g>
  </g>
</g>
<g stroke="#000000" id="img-f6403d03-155">
  <g transform="translate(37.38,95.56)">
    <g class="primitive">
      <text text-anchor="middle" dy="0.35em">↑</text>
    </g>
  </g>
</g>
<g stroke="#000000" id="img-f6403d03-156">
  <g transform="translate(26.27,6.67)">
    <g class="primitive">
      <text text-anchor="middle" dy="0.35em">↓</text>
    </g>
  </g>
</g>
<g stroke="#000000" id="img-f6403d03-157">
  <g transform="translate(26.27,17.78)">
    <g class="primitive">
      <text text-anchor="middle" dy="0.35em">→</text>
    </g>
  </g>
</g>
<g stroke="#000000" id="img-f6403d03-158">
  <g transform="translate(26.27,28.89)">
    <g class="primitive">
      <text text-anchor="middle" dy="0.35em">↑</text>
    </g>
  </g>
</g>
<g stroke="#000000" id="img-f6403d03-159">
  <g transform="translate(26.27,40)">
    <g class="primitive">
      <text text-anchor="middle" dy="0.35em">↑</text>
    </g>
  </g>
</g>
<g stroke="#000000" id="img-f6403d03-160">
  <g transform="translate(26.27,51.11)">
    <g class="primitive">
      <text text-anchor="middle" dy="0.35em">↑</text>
    </g>
  </g>
</g>
<g stroke="#000000" id="img-f6403d03-161">
  <g transform="translate(26.27,62.22)">
    <g class="primitive">
      <text text-anchor="middle" dy="0.35em">↑</text>
    </g>
  </g>
</g>
<g stroke="#000000" id="img-f6403d03-162">
  <g transform="translate(26.27,73.33)">
    <g class="primitive">
      <text text-anchor="middle" dy="0.35em">↑</text>
    </g>
  </g>
</g>
<g stroke="#000000" id="img-f6403d03-163">
  <g transform="translate(26.27,84.44)">
    <g class="primitive">
      <text text-anchor="middle" dy="0.35em">↑</text>
    </g>
  </g>
</g>
<g stroke="#000000" id="img-f6403d03-164">
  <g transform="translate(26.27,95.56)">
    <g class="primitive">
      <text text-anchor="middle" dy="0.35em">↑</text>
    </g>
  </g>
</g>
</svg>
